<svg width="1240" height="143" viewBox="0 0 1240 143" fill="none" xmlns="http://www.w3.org/2000/svg">
<g clip-path="url(#clip0_1170_10)">
<path d="M883.077 3.27264H861.125V138.794H883.077V3.27264Z" fill="#F8F8F8" fill-opacity="0.7"/>
<path d="M139.155 70.6991C131.228 64.5794 118.977 60.4594 102.405 58.339C95.6974 57.4782 89.298 56.8536 83.2062 56.4652L66.1 55.4419C60.7876 55.127 55.9111 54.686 51.4705 54.1191C47.3193 53.6341 43.2364 52.6621 39.3023 51.222C31.6312 48.4823 27.7956 44.1157 27.7956 38.1219C27.7956 32.4955 31.3287 28.0343 38.3947 24.7383C45.4608 21.4422 55.8855 19.7889 69.6689 19.7784C79.9283 19.7487 90.1525 21.0073 100.112 23.5259C110.37 26.1895 120.284 30.0846 129.648 35.1302L143.001 19.9674C123.741 6.61526 99.8458 -0.0607605 71.3149 -0.0607605C49.7784 -0.0607605 33.2567 3.61317 21.75 10.961C10.2433 18.3089 4.5156 28.3543 4.56688 41.0976C4.35564 46.7269 5.68213 52.3051 8.39733 57.2054C11.2194 61.6713 15.2122 65.2342 19.9194 67.487C25.9733 70.4108 32.4171 72.4006 39.0408 73.3915C46.6607 74.6931 55.5881 75.7428 65.8231 76.5406C75.5761 77.1704 84.2625 77.7635 91.8824 78.3198C98.3825 78.7113 104.837 79.6808 111.173 81.2171C115.592 82.1682 119.71 84.2297 123.157 87.2161C125.895 89.8298 127.264 93.572 127.264 98.4426C127.264 105.79 123.162 111.621 114.957 115.936C106.753 120.25 94.7436 122.407 78.9296 122.407C55.2486 122.672 32.0001 115.907 11.997 102.93L-0.0634766 119.211C9.95156 127.276 21.4667 133.17 33.7797 136.531C48.4323 140.427 63.5308 142.286 78.6681 142.057C102.328 142.057 120.275 138.126 132.51 130.264C144.744 122.402 150.872 111.296 150.893 96.9468C150.995 85.6101 147.083 76.8608 139.155 70.6991Z" fill="#F8F8F8" fill-opacity="0.7"/>
<path d="M302.636 89.7968C302.797 94.7203 301.638 99.5949 299.284 103.892C296.93 108.189 293.471 111.743 289.283 114.171C280.391 119.797 267.228 122.605 249.794 122.594C232.36 122.584 219.099 119.776 210.013 114.171C205.808 111.756 202.33 108.206 199.96 103.909C197.589 99.611 196.416 94.7298 196.568 89.7968V3.37012H174.631V95.0872C174.596 101.822 176.402 108.432 179.846 114.171C183.6 120.334 188.696 125.524 194.737 129.334C202.058 133.951 210.057 137.332 218.428 139.348C239.006 144.186 260.384 144.219 280.976 139.442C289.294 137.46 297.233 134.076 304.466 129.428C310.484 125.583 315.579 120.401 319.373 114.265C322.841 108.503 324.649 101.855 324.588 95.0872V3.37012H302.636V89.7968Z" fill="#F8F8F8" fill-opacity="0.7"/>
<path d="M485.789 81.7975C489.89 79.8924 493.61 77.2227 496.757 73.9248C499.927 70.5059 502.382 66.4607 503.972 62.0369C505.763 56.9339 506.634 51.54 506.541 46.1183C506.541 32.8922 502.608 22.474 494.742 14.8637C486.876 7.25339 475.933 3.44824 461.914 3.44824H357.492V138.969H379.444V87.2296H446.377L482.22 138.89H507.633L472.159 86.096C476.867 85.2825 481.45 83.8372 485.789 81.7975ZM379.444 66.8236V23.7755H456.607C474.892 23.7755 484.04 31.1968 484.05 46.0395C484.05 52.7786 481.887 57.9274 477.559 61.4859C473.231 65.0443 466.919 66.8236 458.622 66.8236H379.444Z" fill="#F8F8F8" fill-opacity="0.7"/>
<path d="M1062.82 22.2775C1055.96 16.0437 1047.93 11.298 1039.23 8.3271C1029.15 4.88912 1018.58 3.21238 1007.96 3.36725H924.196V138.888H1012.16C1021.37 138.964 1030.53 137.408 1039.23 134.291C1047.45 131.353 1055.02 126.808 1061.54 120.907C1068.37 114.973 1073.83 107.566 1077.53 99.2164C1081.23 90.8669 1083.07 81.7826 1082.94 72.6156C1083.07 62.8452 1081.29 53.1459 1077.72 44.0849C1074.41 35.7676 1069.31 28.3161 1062.82 22.2775ZM1055.77 90.6914C1053.64 96.1717 1050.47 101.165 1046.45 105.382C1042.38 109.555 1037.53 112.834 1032.19 115.018C1026.4 117.376 1020.22 118.553 1013.99 118.482H946.148V23.7733H1009.79C1016.67 23.6744 1023.51 24.848 1029.99 27.2374C1035.78 29.3788 1041.07 32.724 1045.54 37.0625C1049.91 41.3652 1053.34 46.5647 1055.6 52.3197C1058.04 58.6 1059.24 65.3084 1059.15 72.0646C1059.22 78.44 1058.07 84.7676 1055.77 90.6914Z" fill="#F8F8F8" fill-opacity="0.7"/>
<path d="M1111.69 3.36949V138.891H1178.37C1180.7 131.789 1182.99 125.003 1185.36 118.421H1133.59V78.7429H1200.76C1203.83 71.3897 1206.91 64.572 1209.79 58.2738H1133.59V23.6339H1227.43C1235.12 9.98257 1239.97 3.25927 1239.98 3.16479H1111.69V3.36949Z" fill="#F8F8F8" fill-opacity="0.7"/>
<path d="M544.938 138.893H566.889V78.8085H628.653C631.73 71.4554 634.807 64.6376 637.683 58.3395H566.92V23.6995H655.343C659.188 16.6646 663.378 9.83285 667.896 3.23047H544.938V138.893Z" fill="#F8F8F8" fill-opacity="0.7"/>
<path d="M811.715 70.6993C803.798 64.5796 791.548 60.4596 774.964 58.3392C768.257 57.4784 761.858 56.8538 755.766 56.4654L738.66 55.4421C733.358 55.1272 728.481 54.6862 724.03 54.1193C719.884 53.6362 715.806 52.6641 711.878 51.2222C704.186 48.4825 700.345 44.1159 700.355 38.1221C700.355 32.4958 703.888 28.0345 710.955 24.7385C718.021 21.4425 728.445 19.7892 742.229 19.7787C752.488 19.7489 762.712 21.0075 772.672 23.5261C782.93 26.1897 792.844 30.0849 802.208 35.1304L815.561 19.9676C796.301 6.61547 772.406 -0.0605469 743.875 -0.0605469C722.338 -0.0605469 705.817 3.61339 694.31 10.9613C682.803 18.3091 677.075 28.3545 677.127 41.0978C676.913 46.7294 678.245 52.3098 680.973 57.2056C683.785 61.6738 687.774 65.2377 692.479 67.4872C698.533 70.411 704.977 72.4008 711.601 73.3917C719.22 74.6933 728.148 75.743 738.383 76.5408C748.136 77.1706 756.822 77.7637 764.442 78.3201C770.942 78.7102 777.397 79.6797 783.733 81.2173C788.152 82.1684 792.27 84.2299 795.716 87.2163C798.455 89.83 799.839 93.5144 799.839 98.4428C799.839 105.791 795.737 111.622 787.533 115.936C779.328 120.25 767.319 122.407 751.505 122.407C739.825 122.469 728.193 120.879 716.939 117.684C705.555 114.305 694.684 109.33 684.634 102.899L672.573 119.18C682.611 127.255 694.153 133.148 706.493 136.5C721.146 140.396 736.244 142.255 751.382 142.026C775.041 142.026 792.988 138.095 805.223 130.233C817.458 122.371 823.611 111.265 823.683 96.9155C823.642 85.5998 819.653 76.861 811.715 70.6993Z" fill="#F8F8F8" fill-opacity="0.7"/>
</g>
<defs>
<clipPath id="clip0_1170_10">
<rect width="1240" height="143" fill="white"/>
</clipPath>
</defs>
</svg>
