<svg width="261" height="30" viewBox="0 0 261 30" fill="none" xmlns="http://www.w3.org/2000/svg">
<g clip-path="url(#clip0_1105_1072)">
<path d="M185.873 0.686523H181.253V29.1175H185.873V0.686523Z" fill="#F8F8F8"/>
<path d="M29.2896 14.832C27.621 13.5482 25.0425 12.6838 21.5542 12.239C20.1425 12.0584 18.7955 11.9274 17.5132 11.8459L13.9127 11.6312C12.7945 11.5652 11.7681 11.4726 10.8334 11.3537C9.95964 11.252 9.10026 11.048 8.27219 10.7459C6.65755 10.1712 5.85022 9.25509 5.85022 7.99766C5.85022 6.8173 6.59387 5.88138 8.08116 5.1899C9.56845 4.49843 11.7627 4.15158 14.6639 4.14938C16.8233 4.14314 18.9753 4.40717 21.0717 4.93555C23.2308 5.49435 25.3175 6.31152 27.2886 7.37003L30.0991 4.18901C26.0452 1.38787 21.0156 -0.0126953 15.0103 -0.0126953C10.4772 -0.0126953 6.99969 0.75806 4.57771 2.29957C2.15574 3.84108 0.950151 5.94851 0.960944 8.62193C0.916481 9.8029 1.19569 10.9732 1.76719 12.0012C2.36119 12.9381 3.20162 13.6855 4.1924 14.1582C5.46666 14.7716 6.82297 15.189 8.21715 15.3969C9.82101 15.6699 11.7001 15.8902 13.8544 16.0575C15.9072 16.1897 17.7356 16.3141 19.3394 16.4308C20.7076 16.5129 22.0662 16.7163 23.3998 17.0386C24.3299 17.2381 25.1967 17.6706 25.9222 18.2971C26.4985 18.8455 26.7867 19.6305 26.7867 20.6523C26.7867 22.1938 25.9232 23.4171 24.1963 24.3222C22.4694 25.2273 19.9417 25.6799 16.6131 25.6799C11.6286 25.7354 6.73518 24.3161 2.52487 21.5938L-0.0136719 25.0093C2.09433 26.7014 4.51808 27.9377 7.10978 28.6429C10.1939 29.4604 13.3719 29.8503 16.5581 29.8023C21.538 29.8023 25.3156 28.9776 27.8908 27.3282C30.4661 25.6788 31.7558 23.3489 31.7601 20.3385C31.7817 17.9602 30.9582 16.1247 29.2896 14.832Z" fill="#F8F8F8"/>
<path d="M63.6998 18.8385C63.7337 19.8714 63.4897 20.8941 62.9942 21.7955C62.4988 22.6969 61.7708 23.4427 60.8893 23.9519C59.0177 25.1323 56.2471 25.7213 52.5775 25.7191C48.9078 25.7169 46.1167 25.1279 44.2042 23.9519C43.319 23.4453 42.5871 22.7007 42.0881 21.799C41.5891 20.8974 41.3422 19.8734 41.3742 18.8385V0.707031H36.7569V19.9484C36.7495 21.3612 37.1297 22.748 37.8546 23.9519C38.6446 25.2449 39.7174 26.3337 40.9889 27.1329C42.5298 28.1016 44.2135 28.811 45.9753 29.2338C50.3067 30.2489 54.8065 30.2557 59.1408 29.2536C60.8917 28.8378 62.5626 28.1279 64.0851 27.1528C65.3518 26.3462 66.4242 25.259 67.2227 23.9717C67.9527 22.7629 68.3332 21.3682 68.3203 19.9484V0.707031H63.6998V18.8385Z" fill="#F8F8F8"/>
<path d="M102.25 17.1605C103.114 16.7609 103.897 16.2008 104.559 15.5089C105.226 14.7917 105.743 13.943 106.078 13.015C106.455 11.9444 106.638 10.8128 106.618 9.6754C106.618 6.90068 105.791 4.71504 104.135 3.11848C102.479 1.52192 100.176 0.723633 97.2252 0.723633H75.2461V29.1546H79.8666V18.3001H93.9549L101.499 29.1381H106.848L99.3816 18.0623C100.373 17.8917 101.337 17.5885 102.25 17.1605ZM79.8666 14.0192V4.98808H96.1081C99.9569 4.98808 101.882 6.54501 101.885 9.65886C101.885 11.0727 101.429 12.1528 100.518 12.8994C99.6072 13.6459 98.2786 14.0192 96.5322 14.0192H79.8666Z" fill="#F8F8F8"/>
<path d="M223.705 4.67335C222.262 3.36556 220.573 2.36996 218.742 1.74669C216.62 1.02544 214.395 0.673673 212.159 0.706163H194.528V29.1372H213.043C214.983 29.153 216.911 28.8266 218.742 28.1726C220.47 27.5564 222.065 26.6028 223.437 25.3648C224.874 24.12 226.023 22.566 226.802 20.8144C227.581 19.0627 227.969 17.1569 227.941 15.2338C227.968 13.184 227.595 11.1492 226.843 9.24833C226.145 7.50345 225.073 5.9402 223.705 4.67335ZM222.222 19.0259C221.775 20.1756 221.108 21.2232 220.26 22.1079C219.405 22.9833 218.384 23.6712 217.259 24.1294C216.04 24.6241 214.739 24.8709 213.428 24.8561H199.149V4.98715H212.544C213.993 4.9664 215.433 5.21261 216.796 5.71388C218.015 6.16313 219.129 6.86492 220.069 7.7751C220.988 8.67777 221.71 9.76857 222.187 10.9759C222.699 12.2935 222.953 13.7008 222.935 15.1182C222.949 16.4557 222.707 17.7832 222.222 19.0259Z" fill="#F8F8F8"/>
<path d="M233.992 0.707006V29.138H248.029C248.518 27.6482 249 26.2245 249.499 24.8438H238.603V16.5196H252.74C253.387 14.977 254.035 13.5467 254.64 12.2254H238.603V4.95827H258.354C259.973 2.09436 260.993 0.683882 260.997 0.664062H233.992V0.707006Z" fill="#F8F8F8"/>
<path d="M114.7 29.1384H119.321V16.5333H132.321C132.969 14.9907 133.616 13.5604 134.222 12.2391H119.327V4.97194H137.939C138.748 3.49608 139.63 2.06285 140.581 0.677734H114.7V29.1384Z" fill="#F8F8F8"/>
<path d="M170.853 14.832C169.186 13.5482 166.608 12.6838 163.117 12.239C161.705 12.0584 160.358 11.9274 159.076 11.8459L155.476 11.6312C154.36 11.5652 153.333 11.4726 152.396 11.3537C151.524 11.2524 150.665 11.0484 149.838 10.7459C148.219 10.1712 147.411 9.25509 147.413 7.99765C147.413 6.8173 148.157 5.88138 149.644 5.1899C151.131 4.49843 153.326 4.15158 156.227 4.14938C158.386 4.14314 160.538 4.40717 162.635 4.93555C164.794 5.49435 166.88 6.31151 168.851 7.37003L171.662 4.18901C167.608 1.38787 162.579 -0.0126953 156.573 -0.0126953C152.04 -0.0126953 148.563 0.75806 146.141 2.29957C143.719 3.84108 142.513 5.94851 142.524 8.62193C142.479 9.80338 142.759 10.9741 143.333 12.0012C143.925 12.9386 144.765 13.6862 145.755 14.1582C147.03 14.7716 148.386 15.189 149.78 15.3969C151.384 15.6699 153.263 15.8902 155.417 16.0575C157.47 16.1896 159.299 16.3141 160.902 16.4308C162.271 16.5126 163.629 16.716 164.963 17.0386C165.893 17.2381 166.76 17.6706 167.485 18.2971C168.061 18.8455 168.353 19.6184 168.353 20.6523C168.353 22.1938 167.489 23.4171 165.763 24.3222C164.036 25.2273 161.508 25.6799 158.179 25.6799C155.721 25.6928 153.273 25.3593 150.904 24.6889C148.508 23.9802 146.219 22.9363 144.104 21.5871L141.565 25.0027C143.678 26.6968 146.108 27.9332 148.705 28.6363C151.789 29.4537 154.967 29.8437 158.153 29.7957C163.133 29.7957 166.911 28.971 169.486 27.3216C172.061 25.6722 173.357 23.3423 173.372 20.3319C173.363 17.958 172.523 16.1247 170.853 14.832Z" fill="#F8F8F8"/>
</g>
<defs>
<clipPath id="clip0_1105_1072">
<rect width="261" height="30" fill="white"/>
</clipPath>
</defs>
</svg>
