<svg width="512" height="230" viewBox="0 0 512 230" fill="none" xmlns="http://www.w3.org/2000/svg">
<path d="M145.972 186.439C148.362 189.877 153.744 194.551 161.997 199.466C166.751 202.288 171.672 204.819 176.733 207.045C191.7 213.575 207.329 218.473 223.347 221.653C225.788 222.152 228.299 222.633 230.861 223.097C280.209 231.896 340.407 229.507 369.775 222.564C398.782 215.69 403.7 204.021 403.82 203.66L395.825 202.336C395.825 202.336 300.86 217.408 260.831 216.085C254.933 215.896 249.052 215.339 243.224 214.418C225.779 211.346 208.55 207.161 191.64 201.89C184.762 199.793 178.194 197.696 172.314 195.754C156.735 190.547 145.972 186.439 145.972 186.439Z" fill="#48959C"/>
<path d="M138.75 174.392C138.991 176.592 140.762 180.579 145.026 185.357C145.336 185.718 145.679 186.079 146.023 186.44C150.972 191.468 156.611 195.768 162.771 199.209C165.058 200.532 167.534 201.855 170.233 203.161C172.64 204.33 175.237 205.499 178.005 206.599C193.558 212.748 209.763 217.102 226.304 219.574C226.941 219.694 227.594 219.797 228.247 219.883C238.874 221.602 250.703 222.839 263.857 223.664C369.208 230.539 403.339 204.124 403.82 203.763C385.663 191.733 358.925 185.391 331.947 181.937L329.884 181.679C306.991 179.142 283.984 177.777 260.951 177.589C255.604 177.486 250.841 177.4 246.817 177.262H244.479C239.321 177.005 233.595 176.386 227.611 175.544C215.403 173.928 201.974 171.574 189.164 169.941C168.067 167.192 148.585 166.504 138.75 174.392Z" fill="#48959C"/>
<path d="M170.182 203.161C172.589 204.33 175.185 205.499 177.954 206.599C193.523 212.752 209.745 217.105 226.304 219.574L227.542 219.127L329.884 181.662C306.991 179.125 283.984 177.76 260.951 177.572C255.604 177.469 250.841 177.383 246.817 177.245H244.479L170.182 203.161Z" fill="#48959C"/>
<path d="M337.467 203.488C336.212 212.081 271.354 213.885 228.471 207.612C185.588 201.339 150.253 185.872 151.595 178.74C153.09 172.141 187.101 174.255 229.984 180.459C272.867 186.663 338.722 194.929 337.467 203.488Z" fill="#48959C"/>
<path d="M330.417 227.961C330.417 227.961 305.021 211.875 299.467 213.473C293.913 215.071 293.5 224.042 293.5 224.042C293.5 224.042 279.332 217.46 275.979 218.371C272.626 219.282 273.314 224.678 273.314 224.678C273.314 224.678 258.785 218.457 253.523 220.416C250.639 221.359 248.077 223.091 246.13 225.417C246.13 225.417 271.148 233.168 330.417 227.961Z" fill="#48959C"/>
<path d="M159.039 195.256C159.039 195.256 158.695 192.403 160.415 192.54C162.134 192.678 168.634 200.686 168.634 200.686C168.943 199.793 169.511 198.71 170.491 198.555C172.21 198.315 177.764 204.794 177.764 204.794C177.764 204.794 177.764 199.277 180.79 199.174C183.817 199.071 200.117 214.418 200.117 214.418C190.864 213.077 181.946 210.01 173.827 205.378C154.62 196.218 146.006 185.735 146.006 185.735C149.685 183.38 159.039 195.256 159.039 195.256Z" fill="#48959C"/>
<path d="M212.463 4.94043C212.463 4.94043 207.941 7.60423 206.84 18.6891C205.74 29.7739 200.341 26.7836 196.214 25.8212C195.247 25.5847 194.242 25.5483 193.261 25.7139C192.279 25.8796 191.342 26.244 190.506 26.7847C189.67 27.3254 188.954 28.031 188.401 28.8583C187.848 29.6856 187.47 30.6171 187.29 31.5956C186.499 34.6891 193.893 29.688 199.705 35.1531C204.502 40.0339 213.133 37.8169 217.312 32.558C221.49 27.2992 221.129 13.2412 221.129 13.2412L212.463 4.94043Z" fill="#0F3239"/>
<path d="M175.701 165.645L172.795 170.25C172.795 170.25 162.668 176.489 158.438 176.54C154.208 176.592 155.584 179.05 155.876 180.081C156.168 181.112 165.711 185.443 167.774 185.804C172.434 186.56 175.959 181.249 178.831 181.559C181.702 181.868 184.212 181.353 184.866 169.529C185.983 163.204 175.701 165.645 175.701 165.645Z" fill="white"/>
<path d="M175.15 166.933L184.676 172.089L206.393 132.871C206.393 132.871 208.834 131.032 212.462 128.128C216.916 124.57 223.157 119.415 228.866 114.121C239.183 104.515 237.463 93.7562 234.747 89.2535C234.747 89.2535 233.955 78.5639 226.39 84.3384C216.407 92.8383 207.216 102.226 198.93 112.386C197.057 114.727 195.367 117.209 193.875 119.81C189.68 127.509 177.712 159.836 175.46 165.919C175.271 166.573 175.15 166.933 175.15 166.933Z" fill="white"/>
<path d="M234.214 107.866C234.214 107.866 237.085 93.3781 234.747 89.3394C234.747 89.3394 233.956 78.6499 226.39 84.4243C225.514 85.0945 220.218 89.8894 218.945 91.0065L234.214 107.866Z" fill="#FF624F"/>
<path d="M234.214 107.866C234.214 107.866 237.085 93.3781 234.747 89.3394C234.747 89.3394 233.956 78.6499 226.39 84.4243C225.514 85.0945 220.218 89.8894 218.945 91.0065L234.214 107.866Z" fill="#48959C"/>
<path d="M204.382 39.1226L209.403 58.3879C209.399 58.4221 209.399 58.4567 209.403 58.491V58.8003C209.54 59.3675 209.815 60.4158 210.073 61.3782L210.228 62.0141C210.236 62.0826 210.236 62.1518 210.228 62.2203L210.331 62.5812L210.452 63.0452V63.3374C212.384 64.8287 214.418 66.1839 216.538 67.3932L224.448 83.462L238.719 80.0248L252.716 74.2676L246.268 64.1107C246.268 64.1107 241.505 58.8175 241.574 54.2117C241.677 46.2719 241.78 36.5962 241.574 35.5823C241.574 35.5823 240.164 35.1011 238.049 34.4824C233.32 33.0903 225.067 30.9421 221.164 31.6639C215.782 32.7638 204.382 39.1226 204.382 39.1226Z" fill="#FFC0C5"/>
<path d="M140.229 65.2283C140.229 65.2283 177.575 70.5387 183.129 70.1263C187.204 69.8169 200.117 63.2519 206.651 59.8148L207.562 59.3336L209.282 58.4571L209.471 58.354L210.623 57.7353C210.364 51.0625 208.198 44.6035 204.381 39.123L198.69 42.5602C192.62 46.2208 179.226 55.209 178.469 55.3121C177.283 55.4839 143.272 56.8072 143.272 56.8072L140.229 65.2283Z" fill="white"/>
<path d="M123.894 61.8253L130.049 62.1174C130.049 62.1174 124.169 60.8972 121.968 60.3988C119.767 59.9005 120.008 57.0648 120.008 57.0648L130.324 58.9724L122.828 56.6867C122.027 56.5059 121.33 56.0162 120.889 55.3241C120.447 54.632 120.298 53.7937 120.472 52.9918C120.472 52.9918 131.356 55.8102 132.061 56.2742C132.061 56.2742 127.144 54.0744 125.665 53.3183C122.226 51.1185 123.756 48.85 123.756 48.85C123.756 48.85 133.798 53.7136 135.896 55.0541L136.205 54.9166C135.358 53.9067 134.721 52.7382 134.331 51.4794C133.815 48.6781 136.876 48.4375 136.876 48.4375C137.684 50.4139 138.182 52.6652 140.865 53.5932C143.547 54.5213 144.613 60.3645 144.613 60.3645L142.894 64.2141C142.894 64.2141 140.074 67.0498 133.42 65.503C131.047 65.1249 127.78 64.3172 125.579 63.9563C123.378 63.5954 123.894 61.8253 123.894 61.8253Z" fill="white"/>
<path d="M240.387 55.2087C240.387 55.2087 257.581 56.3946 262.361 55.8274C268.568 55.0884 302.94 30.4096 302.94 30.4096L298.332 22.7275C298.332 22.7275 262.55 39.2775 261.33 39.1228C260.711 39.1228 241.865 35.6856 241.865 35.6856C237.962 43.7286 240.387 55.2087 240.387 55.2087Z" fill="white"/>
<path d="M318.003 21.9375L312.191 23.9998C312.191 23.9998 317.47 21.1125 319.43 19.9783C321.39 18.844 320.341 16.2318 320.341 16.2318L311.056 21.0266L317.573 16.6614C318.288 16.2599 318.816 15.5922 319.041 14.8037C319.267 14.0152 319.172 13.1696 318.776 12.4509C318.776 12.4509 309.165 18.2941 308.614 18.9299C308.614 18.9299 312.672 15.4068 313.876 14.2726C316.472 11.1791 314.409 9.44336 314.409 9.44336C314.409 9.44336 306.207 16.9879 304.591 18.8784H304.247C304.771 17.662 305.046 16.353 305.055 15.0288C304.746 12.1931 301.737 12.8462 301.737 12.8462C301.53 14.96 301.737 17.2629 299.45 19.0159C297.163 20.7688 297.73 26.5776 297.73 26.5776L300.567 29.757C300.567 29.757 304.092 31.6474 310.024 28.2447C312.191 27.1963 315.08 25.4777 317.074 24.4982C319.069 23.5186 318.003 21.9375 318.003 21.9375Z" fill="white"/>
<path d="M207.528 59.385L209.248 58.5086L209.437 58.4226C209.091 60.2106 209.091 62.0482 209.437 63.8362C209.746 65.9157 216.796 68.9919 216.796 68.9919L219.977 73.3743C228.437 72.2572 247.075 64.5924 247.075 64.5924L242.416 55.3808L247.024 55.9307L251.013 37.2669L241.917 35.6858C241.917 35.6858 240.507 35.2046 238.392 34.5859C233.664 33.1939 225.41 31.0456 221.507 31.7674C215.85 32.7986 204.45 39.1745 204.45 39.1745L198.759 42.6117L207.528 59.385Z" fill="#48959C"/>
<g style="mix-blend-mode:overlay" opacity="0.3">
<path d="M209.402 58.423L211.328 45.8945L205.774 55.9826L207.58 59.3854L209.402 58.423Z" fill="#273141"/>
</g>
<path d="M249.19 191.406L260.315 189L247.677 139.935C247.677 139.935 248.399 138.457 249.534 136.068C252.423 130.053 258.011 118.229 261.794 109.43C267.09 97.1419 263.152 89.4082 254.693 86.1085C249.242 83.9775 242.003 86.6413 238.358 98.3964C237.498 101.163 236.638 104.669 235.607 108.519C233.887 115.479 232.168 123.556 230.947 130.362C230.087 134.575 229.513 138.841 229.228 143.131C229.176 150.83 249.19 191.406 249.19 191.406Z" fill="white"/>
<path d="M249.5 185.495L248.881 190.908C248.881 190.908 242.433 200.928 238.564 202.784C234.696 204.64 237.103 206.221 237.808 207.097C238.513 207.974 248.984 207.665 251.013 207.097C255.535 205.774 256.567 201.306 259.146 198.504C262.035 195.617 263.892 195.995 259.387 185.1C257.702 178.861 249.5 185.495 249.5 185.495Z" fill="white"/>
<path d="M235.606 108.519C235.606 108.519 248.691 96.9699 264.201 98.826C264.27 89.391 246.215 63.1826 246.215 63.1826C246.215 63.1826 228.763 70.4694 219.891 73.4941C219.891 73.4941 228.368 90.319 229.279 92.7594C229.898 94.478 231.514 103.071 232.941 106.01C233.629 107.47 234.489 108.502 235.606 108.605V108.519Z" fill="#48959C"/>
<g style="mix-blend-mode:overlay" opacity="0.3">
<path d="M232.941 105.924C233.629 107.385 234.489 108.416 235.607 108.52C235.607 108.52 240.438 94.6506 244.874 90.6807C239.813 94.8128 235.737 100.02 232.941 105.924Z" fill="#273141"/>
</g>
<path d="M215.902 34.5514C216.142 35.9435 218.498 39.7072 221.37 39.3463C223.485 39.0369 225.462 35.7888 226.167 33.0906C226.425 32.1454 226.562 31.5095 226.562 31.5095V31.1142L226.184 28.2958L225.617 24.154C225.29 22.7447 215.3 23.3291 215.3 23.3291V24.5321V24.7383L215.902 34.5514Z" fill="white"/>
<g style="mix-blend-mode:multiply" opacity="0.7">
<path d="M215.128 24.498L215.266 24.7386C217.665 28.8421 221.579 31.841 226.167 33.091C226.425 32.1457 226.562 31.5099 226.562 31.5099V31.1146L226.184 28.2961L225.754 27.6946L215.3 24.5324L215.128 24.498Z" fill="#F9FAFB"/>
</g>
<path d="M234.214 17.5548C234.34 18.0589 234.443 18.5401 234.523 18.9984C234.783 20.1249 234.899 21.2799 234.867 22.4356C233.939 25.7868 230.895 29.8255 229.09 30.3754C225.118 31.819 218.773 27.9694 216.074 25.6665C214.354 24.2401 213.254 20.5108 213.185 16.5237C213.164 15.2661 213.279 14.0099 213.529 12.7771C213.529 12.7771 213.649 8.61818 221.421 6.57307C225.324 5.52473 229.417 5.88564 230.741 7.89638C232.384 10.9202 233.555 14.1773 234.214 17.5548Z" fill="white"/>
<path d="M231.274 22.8652C230.126 23.385 228.88 23.6538 227.62 23.6538C226.36 23.6538 225.114 23.385 223.966 22.8652C223.966 22.8652 224.585 26.0102 227.405 25.9071C228.304 25.9311 229.182 25.6401 229.889 25.0845C230.595 24.5289 231.085 23.7438 231.274 22.8652Z" fill="white"/>
<g style="mix-blend-mode:multiply" opacity="0.7">
<path d="M222.418 21.9368C221.932 22.4999 221.262 22.8715 220.527 22.9852C219.781 22.9568 219.072 22.6573 218.532 22.1431C219.018 21.5801 219.688 21.2084 220.424 21.0947C221.169 21.1231 221.878 21.4226 222.418 21.9368Z" fill="#F9FAFB"/>
</g>
<g style="mix-blend-mode:multiply" opacity="0.7">
<path d="M234.214 17.5547C234.34 18.0588 234.443 18.54 234.523 18.9983C234.069 19.1305 233.585 19.1305 233.131 18.9983C233.298 18.4399 233.665 17.9627 234.162 17.6578L234.214 17.5547Z" fill="#F9FAFB"/>
</g>
<path d="M225.29 16.7812L223.828 17.1593C223.329 17.2796 223.157 18.2421 223.432 19.2904C223.708 20.3387 224.327 21.0949 224.808 21.009C225.289 20.923 225.479 19.9434 225.204 18.8779C225.106 18.4816 224.943 18.1042 224.722 17.7609L225.29 16.7812Z" fill="white"/>
<path d="M231.927 15.8018L230.535 16.1627C230.07 16.283 229.898 17.1938 230.156 18.1906C230.414 19.1874 230.999 19.9092 231.463 19.7717C231.927 19.6342 232.099 18.7405 231.841 17.7438C231.748 17.3648 231.591 17.0045 231.377 16.6783L231.927 15.8018Z" fill="white"/>
<path d="M225.737 15.3033C224.686 15.165 223.619 15.3827 222.705 15.9216C221.792 16.4605 221.086 17.2895 220.699 18.2764C220.699 18.2764 221.903 12.2614 225.737 15.3033Z" fill="white"/>
<path d="M228.969 14.5817C229.689 14.2025 230.511 14.0598 231.316 14.174C232.122 14.2881 232.871 14.6533 233.457 15.2176C233.457 15.2176 230.809 11.2821 228.969 14.5817Z" fill="white"/>
<g style="mix-blend-mode:multiply" opacity="0.7">
<path d="M227.594 20.098C227.785 19.9725 227.986 19.8633 228.196 19.7715C228.385 19.661 228.587 19.5744 228.798 19.5137C228.9 19.4993 229.004 19.4993 229.107 19.5137C229.21 19.5137 229.313 19.5137 229.348 19.5137C229.421 19.5632 229.476 19.6358 229.503 19.7199C229.511 19.8229 229.511 19.9263 229.503 20.0293C229.571 20.4594 229.482 20.8999 229.252 21.2695C229.021 21.639 228.664 21.9127 228.247 22.04C228.478 22.0215 228.701 21.951 228.901 21.8338C229.01 21.781 229.114 21.7177 229.21 21.6447C229.299 21.5613 229.38 21.4692 229.451 21.3698C229.736 20.9651 229.859 20.4684 229.795 19.9777C229.769 19.8553 229.734 19.7347 229.692 19.6168V19.5309H229.606H229.245C229.121 19.5412 228.999 19.5702 228.884 19.6168C228.671 19.7163 228.47 19.8372 228.282 19.9777C228.049 19.9937 227.818 20.034 227.594 20.098Z" fill="#F9FAFB"/>
</g>
<path d="M214.406 20.2182C214.406 20.2182 212.566 17.245 210.537 17.7778C208.508 18.3105 211.345 28.9314 215.197 23.6038L214.406 20.2182Z" fill="white"/>
<g style="mix-blend-mode:multiply" opacity="0.7">
<path d="M214.405 22.0749C214.383 22.0904 214.356 22.0987 214.328 22.0987C214.3 22.0987 214.273 22.0904 214.251 22.0749C214.251 22.0749 213.872 21.3187 213.339 21.2328C213.193 21.2266 213.048 21.2563 212.916 21.3192C212.784 21.3821 212.67 21.4764 212.583 21.5937C212.558 21.6133 212.528 21.6239 212.497 21.6239C212.466 21.6239 212.435 21.6133 212.411 21.5937C212.387 21.5682 212.373 21.5344 212.373 21.4992C212.373 21.464 212.387 21.4302 212.411 21.4047C212.526 21.2588 212.676 21.1444 212.848 21.0723C213.019 21.0001 213.206 20.9726 213.391 20.9922H213.614C213.465 20.7702 213.258 20.5925 213.016 20.4777C212.774 20.3628 212.506 20.315 212.239 20.3392C212.112 20.3878 211.999 20.4664 211.909 20.5681C211.819 20.6698 211.756 20.7918 211.723 20.9235C211.668 21.0787 211.633 21.2405 211.62 21.4047C211.62 21.4366 211.607 21.4672 211.585 21.4898C211.562 21.5123 211.531 21.525 211.5 21.525C211.482 21.5252 211.465 21.5216 211.449 21.5145C211.433 21.5074 211.419 21.497 211.408 21.4839C211.396 21.4708 211.388 21.4555 211.383 21.4388C211.378 21.4222 211.377 21.4047 211.379 21.3875C211.379 21.3875 211.379 20.3391 212.17 20.0985C212.961 19.8579 213.975 20.6829 214.474 21.8171C214.494 21.8415 214.504 21.8718 214.504 21.9031C214.504 21.9343 214.494 21.9646 214.474 21.989L214.405 22.0749Z" fill="#F9FAFB"/>
</g>
<path d="M232.478 12.6569C231.118 12.4508 229.815 11.9677 228.649 11.2375C227.484 10.5073 226.481 9.54557 225.703 8.412C224.766 11.0999 223.127 13.4888 220.957 15.3318C218.786 17.1748 216.163 18.4051 213.357 18.8953C213.357 18.8953 211.088 16.919 210.107 18.2251C210.107 18.2251 207.924 9.32284 212.154 5.23261C216.383 1.14239 223.192 3.13594 223.192 3.13594C223.192 3.13594 224.259 1.41737 227.973 2.20792C231.687 2.99847 234.575 12.5194 234.575 12.5194C233.906 12.7764 233.175 12.8243 232.478 12.6569Z" fill="#0F3239"/>
</svg>
