<svg width="512" height="199" viewBox="0 0 512 199" fill="none" xmlns="http://www.w3.org/2000/svg">
<path d="M189.174 136.763V153.382H354.911C345.093 142.039 339.952 126.331 350.166 109.438C353.671 104.519 358.267 100.478 363.595 97.6312C377.866 89.4507 394.356 87.44 388.492 80.5656C382.99 74.1553 357.353 68.5355 333.126 75.1693L332.163 75.4615C327.053 76.9399 322.131 79.0045 317.496 81.614C316.619 82.1123 315.777 82.6279 314.9 83.1779L314.264 83.6075C312.974 84.4324 312.132 85.0339 311.77 85.3261L311.581 85.4636C310.653 86.1338 309.741 86.8556 308.865 87.5774L308.71 87.7149H308.624C308.332 88.0071 308.005 88.2649 307.695 88.5399C307.386 88.8148 307.489 88.7289 307.403 88.8148L306.715 89.4507L305.494 90.6022L305.185 90.8943C304.858 91.2208 304.532 91.5302 304.222 91.8739C303.913 92.2176 303.483 92.6473 303.104 93.0769L302.726 93.5066L302.296 93.9706L301.987 94.3143L301.884 94.4346C301.851 94.4586 301.822 94.4876 301.798 94.5205C301.505 94.8299 301.23 95.1564 300.921 95.4657C300.216 96.2563 299.494 97.0297 298.771 97.7686L298.531 98.0436L296.502 100.157L295.281 101.395C294.903 101.79 294.524 102.185 294.129 102.563L293.596 103.096L292.134 104.54C291.481 105.176 290.828 105.812 290.174 106.413C289.521 107.015 288.781 107.719 288.094 108.338L286.615 109.696C285.119 111.036 283.623 112.325 282.144 113.562L280.838 114.645C279.118 116.037 277.399 117.378 275.679 118.615L274.183 119.715L272.842 120.66L270.744 122.104C270.16 122.516 269.541 122.894 269.025 123.272C268.509 123.65 267.925 123.994 267.306 124.321C266.687 124.647 266.48 124.836 266.067 125.077C265.655 125.318 265.328 125.541 264.95 125.747L263.901 126.331C262.182 127.294 260.582 128.17 258.932 128.978L257.505 129.648C256.542 130.095 255.596 130.525 254.65 130.903C253.705 131.281 253.24 131.487 252.518 131.762L251.744 132.072L250.524 132.518C248.632 133.189 246.775 133.773 244.884 134.237C244.368 134.374 243.852 134.512 243.302 134.632L242.769 134.77C242.167 134.907 241.565 135.045 240.964 135.148C240.362 135.251 239.45 135.457 238.677 135.577L237.387 135.784L235.96 135.99C233.318 136.305 230.66 136.465 227.999 136.471L189.174 136.763Z" fill="#0F3239"/>
<path d="M189.174 136.763V153.382H354.911C345.093 142.039 339.952 126.331 350.166 109.438C353.671 104.519 358.267 100.478 363.595 97.6312C377.866 89.4507 394.356 87.44 388.492 80.5656C382.99 74.1553 357.353 68.5355 333.126 75.1693L332.163 75.4615C327.053 76.9399 322.131 79.0045 317.496 81.614C316.619 82.1123 315.777 82.6279 314.9 83.1779L314.264 83.6075C312.974 84.4324 312.132 85.0339 311.77 85.3261L311.581 85.4636C310.653 86.1338 309.741 86.8556 308.865 87.5774L308.71 87.7149H308.624C308.332 88.0071 308.005 88.2649 307.695 88.5399C307.386 88.8148 307.489 88.7289 307.403 88.8148L306.715 89.4507L305.494 90.6022L305.185 90.8943C304.858 91.2208 304.532 91.5302 304.222 91.8739C303.913 92.2176 303.483 92.6473 303.104 93.0769L302.726 93.5066L302.296 93.9706L301.987 94.3143L301.884 94.4346C301.851 94.4586 301.822 94.4876 301.798 94.5205C301.505 94.8299 301.23 95.1564 300.921 95.4657C300.216 96.2563 299.494 97.0297 298.771 97.7686L298.531 98.0436L296.502 100.157L295.281 101.395C294.903 101.79 294.524 102.185 294.129 102.563L293.596 103.096L292.134 104.54C291.481 105.176 290.828 105.812 290.174 106.413C289.521 107.015 288.781 107.719 288.094 108.338L286.615 109.696C285.119 111.036 283.623 112.325 282.144 113.562L280.838 114.645C279.118 116.037 277.399 117.378 275.679 118.615L274.183 119.715L272.842 120.66L270.744 122.104C270.16 122.516 269.541 122.894 269.025 123.272C268.509 123.65 267.925 123.994 267.306 124.321C266.687 124.647 266.48 124.836 266.067 125.077C265.655 125.318 265.328 125.541 264.95 125.747L263.901 126.331C262.182 127.294 260.582 128.17 258.932 128.978L257.505 129.648C256.542 130.095 255.596 130.525 254.65 130.903C253.705 131.281 253.24 131.487 252.518 131.762L251.744 132.072L250.524 132.518C248.632 133.189 246.775 133.773 244.884 134.237C244.368 134.374 243.852 134.512 243.302 134.632L242.769 134.77C242.167 134.907 241.565 135.045 240.964 135.148C240.362 135.251 239.45 135.457 238.677 135.577L237.387 135.784L235.96 135.99C233.318 136.305 230.66 136.465 227.999 136.471L189.174 136.763Z" fill="#0F3239"/>
<path d="M302.898 93.2484C304.274 91.7491 305.726 90.3208 307.248 88.9691C307.678 88.5567 308.125 88.1614 308.555 87.7833C309.464 86.9733 310.423 86.2214 311.426 85.532L311.616 85.3945C311.977 85.1195 312.819 84.518 314.109 83.6759L314.745 83.2462C315.605 82.6963 316.464 82.1807 317.341 81.6823C332.061 73.7261 348.846 70.4127 365.486 72.1786C398.637 75.4611 397.45 91.9079 394.407 94.5201C391.364 97.1324 381.7 90.3612 381.7 90.3612C381.7 90.3612 379.981 101.343 373.722 102.752C367.463 104.161 358.9 92.5781 358.9 92.5781C358.9 92.5781 357.026 103.457 347.621 101.171C342.134 99.8589 337.201 96.8522 333.521 92.5781C333.521 92.5781 335.636 104.041 324.58 96.3762C323.059 95.423 321.46 94.6009 319.8 93.9186C316.808 92.8875 309.002 91.7876 299.665 102.872C287.629 117.068 263.041 134.563 235.564 136.316C257.333 133.566 279.049 119.818 302.898 93.2484Z" fill="#0F3239"/>
<path d="M101.671 116.965V198.34H512C469.702 166.65 430.773 168.729 392.515 168.076C389.902 168.076 387.357 167.973 384.709 167.887L380.221 167.732C370.633 167.406 361.082 166.378 351.644 164.656C339.894 162.479 328.521 158.618 317.874 153.193C311.457 149.609 305.41 145.401 299.82 140.63C298.978 139.891 298.101 139.152 297.378 138.413C296.278 137.382 295.246 136.351 294.283 135.303C284.173 124.527 280.631 113.717 280.631 103.87C280.631 80.8064 300.112 62.9847 300.112 62.9847C304.774 59.0997 309.782 55.6482 315.072 52.6732C344.061 36.0889 377.539 32.0502 365.623 18.0266C356.235 7.02764 317.754 -2.90574 276.47 2.42187C268.621 3.37667 260.852 4.89873 253.223 6.9761H253.085H252.948L252.552 7.09641L252.002 7.25108C249.194 8.05308 246.408 8.93528 243.646 9.89768C242.064 10.4476 240.482 11.0319 238.9 11.6163H238.711H238.591L238.143 11.7881C232.394 14.0693 226.81 16.7452 221.43 19.7967L220.106 20.5701C219.659 20.8279 219.212 21.0856 218.782 21.3606C217.906 21.8762 217.063 22.4261 216.152 22.9761C215.24 23.526 214.432 24.1104 213.521 24.6947L212.506 25.3821L211.268 26.2242C210.632 26.6539 210.168 26.9976 209.841 27.2382L209.532 27.4788L209.222 27.7022C207.417 29.0255 205.629 30.4176 203.909 31.8784L203.686 32.0674L203.497 32.2221L203.307 32.3767L202.946 32.6861L202.396 33.1501C202.207 33.3391 202.001 33.511 201.777 33.7001L200.677 34.6968C200.178 35.1265 199.679 35.5905 199.181 36.0373L198.802 36.3982L197.719 37.4294L197.547 37.584C197.494 37.6456 197.437 37.703 197.375 37.7559L196.412 38.7011L194.848 40.2994L193.438 41.7774V41.8633L193.094 42.2242L192.114 43.2897C190.394 45.1286 188.83 46.9331 187.196 48.7033C185.563 50.4734 183.654 52.5357 181.866 54.3918L180.147 56.1104C179.579 56.7119 178.994 57.2962 178.427 57.8289L176.295 60.0287L175.452 60.8708L174.163 62.1769L173.595 62.7441L173.045 63.294L172.495 63.844L171.928 64.3767L170.5 65.786C170.036 66.2672 169.555 66.7312 169.09 67.178L165.308 70.7871C163.984 72.0416 162.66 73.2618 161.336 74.4992C160.287 75.4444 159.238 76.4068 158.189 77.3349L157.364 78.0738L156.538 78.7956C155.455 79.758 154.372 80.7033 153.272 81.6313C150.452 84.1061 147.615 86.4605 144.795 88.7119L143.075 90.1555L142.061 90.9632L140.341 92.235L139.275 93.0599L138.725 93.4723C138.192 93.8848 137.659 94.2973 137.126 94.6753C136.421 95.2253 135.716 95.7409 134.994 96.2564C133.154 97.6141 131.314 98.9202 129.474 100.192C122.083 105.333 114.376 110.005 106.399 114.181L105.282 114.766L103.339 115.728L101.671 116.965Z" fill="#0F3239"/>
<path d="M0 116.965V198.34H512C459.23 166.65 410.639 168.729 362.924 168.076C359.674 168.076 356.424 167.973 353.175 167.887L347.586 167.732C335.649 167.407 323.741 166.38 311.925 164.656C297.451 162.54 283.284 158.691 269.73 153.193C261.865 149.69 254.332 145.485 247.222 140.63C246.156 139.891 245.142 139.152 244.162 138.413C242.803 137.382 241.496 136.351 240.293 135.303C227.689 124.527 223.27 113.717 223.27 103.87C223.27 80.8064 247.566 62.9847 247.566 62.9847C253.494 59.036 259.74 55.5869 266.239 52.6732C302.348 36.0889 344.182 32.0502 329.326 18.0266C317.599 7.02764 269.592 -2.90574 218.06 2.42187C208.322 3.37333 198.648 4.89401 189.088 6.9761H188.916H188.744L188.245 7.09641L187.557 7.25108C184.119 8.05308 180.68 8.93528 177.241 9.89768C175.246 10.4476 173.269 11.0319 171.309 11.6163H171.068H170.913L170.363 11.7881C163.204 14.1444 156.194 16.9277 149.368 20.1232L147.649 20.8966L145.93 21.6872C144.846 22.2027 143.746 22.7527 142.663 23.3026C141.579 23.8526 140.479 24.4369 139.378 25.0212L138.123 25.7086L136.576 26.5507C135.785 26.9804 135.183 27.3241 134.856 27.5647L134.478 27.8053C134.341 27.8695 134.208 27.9442 134.083 28.0287C131.79 29.3578 129.578 30.7498 127.445 32.2049L127.153 32.3939L126.93 32.5486L126.689 32.7033L126.225 33.0126L125.554 33.4766L124.798 34.0266C124.316 34.3531 123.869 34.6797 123.405 35.0234C122.941 35.3671 122.167 35.917 121.548 36.3639L121.083 36.7248L119.725 37.7559L119.502 37.9106L119.295 38.0824L118.092 39.0276L116.149 40.6259C115.547 41.1071 114.962 41.6055 114.429 42.1039L114.326 42.1899L113.931 42.5507C113.501 42.8945 113.105 43.2554 112.693 43.6163C110.646 45.4552 108.583 47.2597 106.554 49.0298C104.525 50.7999 102.118 52.8622 99.8999 54.7183L97.7506 56.4369L95.6185 58.1555L92.9534 60.3553L91.8873 61.1974L90.2882 62.5035L89.5832 63.0706L88.8955 63.6206L88.2077 64.1705L87.5027 64.7033L85.7833 66.1125L84.0638 67.5046L79.3526 71.1136L74.3833 74.8257L70.4629 77.6614L69.4313 78.4004L68.4168 79.1222L64.3417 81.9578C60.7997 84.4326 57.2576 86.7871 53.75 89.0384L51.4975 90.482L50.2251 91.2897L48.1618 92.5615L46.8377 93.3864L46.1499 93.7989C45.4793 94.2113 44.826 94.6238 44.1726 95.0019C43.2785 95.5518 42.4532 96.0674 41.5075 96.583C39.2206 97.9407 36.9166 99.2468 34.6297 100.519C25.2959 105.711 15.6809 110.381 5.82895 114.508L4.43621 115.092L2.01172 116.055L0 116.965Z" fill="#0F3239"/>
<path d="M101.671 116.965V117.566C110.853 114.971 142.216 103.629 184.669 62.1765C200.384 46.8468 211.733 43.5471 219.161 43.6502H219.298C219.982 43.654 220.665 43.6942 221.344 43.7705C221.723 43.7705 222.101 43.8565 222.462 43.9252C223.945 44.1634 225.402 44.5432 226.812 45.0595L229.168 46.1078L231.386 47.1905L231.592 47.3108C232.349 47.6889 233.071 48.0842 233.776 48.4794C234.481 48.8747 235.496 49.4419 236.201 49.9403L236.355 50.0434L237.163 50.5933L237.92 51.0745C254.134 61.5407 254.96 49.8887 254.616 44.5611C254.569 43.7773 254.477 42.9969 254.341 42.2238C255.401 43.511 256.55 44.7227 257.78 45.85C264.883 52.5187 273.58 57.2528 283.038 59.5987C302.124 64.3591 305.941 42.2582 305.941 42.2582C308.72 45.921 311.772 49.368 315.072 52.5697C321.124 58.4644 329.171 64.3763 336.014 62.8812C348.893 60.0283 352.229 37.7383 352.229 37.7383C352.229 37.7383 371.813 51.487 378.021 46.2109C384.228 40.9349 386.618 7.56001 319.301 0.87473C305.356 -0.526253 291.293 -0.243507 277.416 1.71684C269.223 2.87891 261.126 4.63652 253.189 6.9757H253.051H252.914L251.968 7.25068C249.028 8.14434 246.242 9.08955 243.577 10.052C242.115 10.6019 240.688 11.1347 239.313 11.7705L239.072 11.8737L238.642 12.0455L238.144 12.2518C232.455 14.5482 226.908 17.1824 221.534 20.14H221.396L220.072 20.8962C219.625 21.154 219.178 21.4118 218.748 21.6868C217.871 22.2023 217.029 22.7523 216.117 23.3022C215.206 23.8522 214.398 24.4365 213.487 25.0208L212.472 25.7082L211.234 26.5504C210.598 26.98 210.134 27.3237 209.807 27.5643L209.497 27.8049L209.188 28.0283C207.334 29.312 205.56 30.7065 203.875 32.2045L203.651 32.3935L203.462 32.5482L202.362 33.4762C202.173 33.6653 201.966 33.8371 201.743 34.0262L200.642 35.023C200.006 35.5729 199.387 36.1401 198.768 36.7416L197.685 37.7727L197.513 37.9274L196.378 39.0444L194.813 40.6427L193.403 42.1207V42.2066L193.077 42.5675L192.114 43.6331C190.463 45.4777 188.818 47.2822 187.179 49.0466C185.46 50.9886 183.637 52.879 181.849 54.7351L180.129 56.4537C178.857 57.7942 177.567 59.1175 176.278 60.4236L175.435 61.2657L174.129 62.5718L173.578 63.139L173.028 63.6889L172.478 64.2389L170.483 66.1808C170.019 66.662 169.538 67.1261 169.073 67.5729L165.291 71.1819C163.967 72.4365 162.643 73.6567 161.319 74.8941C160.27 75.8393 159.221 76.8017 158.172 77.7297L157.347 78.4687L156.521 79.1905C155.438 80.1529 154.355 81.1153 153.254 82.0262C150.435 84.5009 147.597 86.8554 144.778 89.1067L143.058 90.5504L142.044 91.3581L140.324 92.6298L139.258 93.4548L138.708 93.8672C138.175 94.2797 137.642 94.6921 137.109 95.0702L134.977 96.6513C133.137 98.009 131.297 99.3151 129.457 100.587C122.066 105.728 114.359 110.4 106.382 114.576L103.322 116.123L101.671 116.965Z" fill="#0F3239"/>
</svg>
