<svg width="462" height="53" viewBox="0 0 462 53" fill="none" xmlns="http://www.w3.org/2000/svg">
<path d="M51.7579 26.2257C48.8107 23.9575 44.2564 22.4305 38.095 21.6447C35.6014 21.3256 33.2223 21.0941 30.9575 20.9502L24.5979 20.5709C22.6229 20.4542 20.8099 20.2907 19.159 20.0807C17.6157 19.9009 16.0978 19.5406 14.6352 19.0069C11.7833 17.9915 10.3573 16.3731 10.3573 14.1516C10.3573 12.0663 11.6708 10.4129 14.2978 9.19126C16.9247 7.96965 20.8004 7.35688 25.9247 7.35299C29.7389 7.34198 33.54 7.80843 37.2428 8.7419C41.0563 9.72912 44.7421 11.1728 48.2235 13.0428L53.1877 7.42302C46.0274 2.47433 37.1437 0 26.5367 0C18.5299 0 12.3876 1.36167 8.10969 4.085C3.8318 6.80834 1.70238 10.5315 1.72145 15.2545C1.64291 17.3409 2.13607 19.4083 3.14551 21.2245C4.19468 22.8797 5.67911 24.2002 7.42911 25.0352C9.67982 26.1188 12.0754 26.8563 14.538 27.2236C17.3708 27.706 20.6898 28.095 24.4949 28.3907C28.1208 28.6241 31.3502 28.844 34.1831 29.0502C36.5997 29.1952 38.9993 29.5546 41.3548 30.124C42.9977 30.4765 44.5288 31.2405 45.81 32.3474C46.828 33.3161 47.337 34.703 47.337 36.5082C47.337 39.2316 45.812 41.3927 42.7618 42.9917C39.7116 44.5907 35.2468 45.3902 29.3676 45.3902C20.5636 45.4883 11.9204 42.9809 4.48378 38.1714L0 44.2056C3.72333 47.1949 8.00436 49.3791 12.582 50.6249C18.0295 52.0691 23.6427 52.758 29.2704 52.6731C38.0664 52.6731 44.7387 51.2162 49.2873 48.3022C53.8359 45.3882 56.114 41.2721 56.1216 35.9539C56.1597 31.7521 54.7051 28.5094 51.7579 26.2257Z" fill="#F9FAFB"/>
<path d="M114.711 32.4971C114.771 34.3219 114.34 36.1286 113.465 37.7211C112.59 39.3137 111.304 40.6312 109.747 41.5308C106.442 43.6161 101.548 44.6568 95.0663 44.6529C88.5847 44.649 83.6548 43.6083 80.2767 41.5308C78.7133 40.6358 77.4205 39.3203 76.5391 37.7274C75.6578 36.1345 75.2216 34.3254 75.2782 32.4971V0.464844H67.1227V34.4579C67.1096 36.9539 67.7812 39.4039 69.0615 41.5308C70.4569 43.8151 72.3518 45.7386 74.5976 47.1506C77.3193 48.862 80.2931 50.1152 83.405 50.8621C91.0554 52.6554 99.0034 52.6674 106.659 50.8972C109.751 50.1626 112.703 48.9083 115.392 47.1856C117.629 45.7607 119.524 43.8399 120.934 41.5658C122.223 39.4301 122.895 36.9662 122.873 34.4579V0.464844H114.711V32.4971Z" fill="#F9FAFB"/>
<path d="M181.57 30.2651C183.095 29.559 184.478 28.5696 185.648 27.3472C186.827 26.0801 187.739 24.5808 188.33 22.9412C188.996 21.0499 189.32 19.0508 189.285 17.0413C189.285 12.1393 187.823 8.27806 184.899 5.45746C181.975 2.63686 177.906 1.22656 172.694 1.22656H133.873V51.4546H142.034V32.2784H166.918L180.244 51.4254H189.692L176.503 31.8582C178.254 31.5567 179.957 31.0211 181.57 30.2651ZM142.034 24.7153V8.76042H170.721C177.519 8.76042 180.92 11.511 180.924 17.0121C180.924 19.5098 180.12 21.4181 178.511 22.737C176.902 24.0559 174.555 24.7153 171.47 24.7153H142.034Z" fill="#F9FAFB"/>
<path d="M200.691 51.4798H208.853V29.2107H231.815C232.959 26.4854 234.102 23.9585 235.172 21.6242H208.864V8.78565H241.737C243.167 6.17829 244.724 3.64626 246.404 1.19922H200.691V51.4798Z" fill="#F9FAFB"/>
<path d="M309.134 26.2315C306.19 23.9634 301.636 22.4364 295.471 21.6505C292.977 21.3315 290.598 21.1 288.333 20.956L281.974 20.5768C280.002 20.4601 278.189 20.2966 276.535 20.0865C274.993 19.9074 273.477 19.5471 272.017 19.0128C269.157 17.9973 267.729 16.3789 267.733 14.1575C267.733 12.0722 269.046 10.4187 271.673 9.19712C274.3 7.97551 278.176 7.36274 283.3 7.35885C287.115 7.34784 290.916 7.81429 294.619 8.74775C298.432 9.73498 302.118 11.1786 305.599 13.0487L310.563 7.42888C303.403 2.48019 294.519 0.00585938 283.912 0.00585938C275.906 0.00585938 269.763 1.36753 265.485 4.09086C261.208 6.8142 259.078 10.5373 259.097 15.2604C259.018 17.3476 259.513 19.4158 260.527 21.2304C261.573 22.8864 263.056 24.2073 264.805 25.041C267.056 26.1247 269.451 26.8622 271.914 27.2294C274.747 27.7118 278.066 28.1009 281.871 28.3966C285.497 28.63 288.726 28.8498 291.559 29.056C293.975 29.2006 296.375 29.5599 298.731 30.1298C300.373 30.4823 301.904 31.2464 303.186 32.3532C304.204 33.3219 304.718 34.6875 304.718 36.5141C304.718 39.2374 303.193 41.3986 300.143 42.9976C297.093 44.5965 292.628 45.396 286.749 45.396C282.407 45.4188 278.082 44.8297 273.898 43.6453C269.666 42.3932 265.624 40.5491 261.888 38.1656L257.404 44.1997C261.136 47.1926 265.427 49.3769 270.015 50.619C275.462 52.0632 281.076 52.7522 286.703 52.6674C295.499 52.6674 302.172 51.2104 306.72 48.2964C311.269 45.3825 313.556 41.2663 313.583 35.948C313.568 31.7541 312.085 28.5153 309.134 26.2315Z" fill="#F9FAFB"/>
<path d="M332.744 1.22656H324.583V51.4546H332.744V1.22656Z" fill="#F9FAFB"/>
<path d="M395.279 8.235C392.729 5.92457 389.747 4.16567 386.512 3.06456C382.765 1.79035 378.834 1.1689 374.885 1.2263H343.744V51.4544H376.446C379.872 51.4823 383.278 50.9058 386.512 49.7503C389.565 48.6617 392.382 46.9769 394.804 44.79C397.343 42.5908 399.373 39.8454 400.748 36.7508C402.124 33.6563 402.811 30.2893 402.76 26.8918C402.808 23.2706 402.149 19.6757 400.821 16.3175C399.588 13.2348 397.695 10.4731 395.279 8.235ZM392.66 33.5912C391.869 35.6223 390.691 37.4731 389.194 39.0359C387.684 40.5825 385.879 41.7979 383.892 42.6074C381.741 43.4813 379.442 43.9174 377.127 43.8912H351.905V8.78937H375.565C378.124 8.75271 380.668 9.18768 383.074 10.0733C385.227 10.8669 387.196 12.1068 388.856 13.7148C390.48 15.3095 391.755 17.2366 392.597 19.3695C393.502 21.6972 393.951 24.1835 393.918 26.6875C393.943 29.0504 393.516 31.3956 392.66 33.5912Z" fill="#F9FAFB"/>
<path d="M413.762 1.26337V51.4914H438.555C439.418 48.8595 440.27 46.3443 441.151 43.905H421.906V29.199H446.876C448.02 26.4737 449.163 23.9468 450.233 21.6125H421.906V8.77393H456.793C459.652 3.71437 461.454 1.22251 461.46 1.1875H413.762V1.26337Z" fill="#F9FAFB"/>
</svg>
