<svg width="200" height="23" viewBox="0 0 200 23" fill="none" xmlns="http://www.w3.org/2000/svg">
<g clip-path="url(#clip0_1214_315)">
<path d="M142.431 0.526367H138.891V22.3234H142.431V0.526367Z" fill="#0F3239"/>
<path d="M22.4449 11.3712C21.1662 10.3869 19.1904 9.72424 16.5173 9.3832C15.4355 9.24476 14.4034 9.14429 13.4208 9.08182L10.6618 8.91723C9.80493 8.86658 9.0184 8.79565 8.30216 8.70448C7.63262 8.62647 6.97409 8.47013 6.33956 8.23851C5.10228 7.79786 4.48364 7.09553 4.48364 6.1315C4.48364 5.22656 5.05348 4.50903 6.19317 3.97889C7.33286 3.44876 9.01427 3.18284 11.2374 3.18116C12.8921 3.17638 14.5412 3.3788 16.1476 3.78389C17.8021 4.21231 19.4011 4.8388 20.9115 5.65033L23.0651 3.21154C19.9587 1.064 16.1046 -0.00976562 11.5029 -0.00976562C8.02924 -0.00976562 5.36446 0.581147 3.50854 1.76297C1.65262 2.9448 0.728796 4.56049 0.737066 6.61011C0.702995 7.51552 0.916946 8.41272 1.35488 9.20087C1.81005 9.91917 2.45406 10.4922 3.21328 10.8546C4.18972 11.3248 5.22904 11.6449 6.29738 11.8042C7.52639 12.0136 8.9663 12.1824 10.6171 12.3107C12.1902 12.412 13.5912 12.5074 14.8202 12.5969C15.8686 12.6599 16.9097 12.8158 17.9316 13.0629C18.6443 13.2159 19.3086 13.5474 19.8644 14.0278C20.3061 14.4482 20.5269 15.05 20.5269 15.8334C20.5269 17.0152 19.8653 17.9531 18.542 18.647C17.2187 19.3409 15.2817 19.6879 12.7311 19.6879C8.91154 19.7304 5.16177 18.6423 1.93547 16.5552L-0.00976562 19.1738C1.60556 20.471 3.46284 21.4189 5.44882 21.9595C7.81213 22.5862 10.2474 22.8852 12.6889 22.8484C16.5049 22.8484 19.3996 22.2161 21.373 20.9516C23.3464 19.687 24.3347 17.9008 24.338 15.5929C24.3545 13.7695 23.7235 12.3622 22.4449 11.3712Z" fill="#0F3239"/>
<path d="M48.812 14.4427C48.838 15.2346 48.651 16.0187 48.2713 16.7098C47.8916 17.4009 47.3338 17.9726 46.6583 18.363C45.2242 19.268 43.1011 19.7196 40.2891 19.7179C37.4771 19.7162 35.3383 19.2646 33.8728 18.363C33.1945 17.9746 32.6337 17.4037 32.2513 16.7125C31.8689 16.0212 31.6797 15.2362 31.7043 14.4427V0.54195H28.1661V15.2937C28.1604 16.3768 28.4517 17.4401 29.0072 18.363C29.6126 19.3543 30.4347 20.1891 31.409 20.8018C32.5897 21.5445 33.8799 22.0883 35.23 22.4125C38.549 23.1907 41.9972 23.1959 45.3185 22.4277C46.6601 22.1089 47.9405 21.5646 49.1072 20.817C50.0779 20.1986 50.8996 19.3651 51.5115 18.3782C52.0709 17.4514 52.3624 16.3822 52.3526 15.2937V0.54195H48.812V14.4427Z" fill="#0F3239"/>
<path d="M78.3531 13.1563C79.0147 12.8498 79.6146 12.4205 80.1222 11.89C80.6335 11.3401 81.0295 10.6895 81.2859 9.97798C81.5749 9.15721 81.7153 8.28966 81.7002 7.41764C81.7002 5.29036 81.0659 3.6147 79.7972 2.39067C78.5285 1.16664 76.7635 0.554623 74.5024 0.554623H57.6602V22.3517H61.2008V14.0299H71.9964L77.7775 22.339H81.8764L76.1548 13.8476C76.9142 13.7168 77.6533 13.4843 78.3531 13.1563ZM61.2008 10.7479V3.82403H73.6464C76.5956 3.82403 78.0711 5.01768 78.0728 7.40497C78.0728 8.48887 77.7238 9.31701 77.0257 9.88935C76.3277 10.4617 75.3096 10.7479 73.9714 10.7479H61.2008Z" fill="#0F3239"/>
<path d="M171.422 3.58313C170.316 2.58049 169.022 1.81719 167.619 1.33936C165.993 0.786396 164.288 0.51671 162.574 0.54162H149.064V22.3387H163.252C164.738 22.3508 166.216 22.1006 167.619 21.5992C168.943 21.1268 170.165 20.3957 171.216 19.4466C172.318 18.4923 173.198 17.3008 173.795 15.9579C174.392 14.615 174.69 13.1539 174.668 11.6795C174.689 10.108 174.403 8.54798 173.827 7.09061C173.292 5.75287 172.47 4.55438 171.422 3.58313ZM170.286 14.5868C169.943 15.4682 169.432 16.2714 168.782 16.9496C168.127 17.6207 167.344 18.1482 166.482 18.4995C165.549 18.8787 164.552 19.0679 163.547 19.0566H152.605V3.82371H162.87C163.98 3.8078 165.083 3.99656 166.127 4.38087C167.062 4.72529 167.916 5.26333 168.636 5.96114C169.34 6.65319 169.893 7.48947 170.259 8.4151C170.651 9.42521 170.846 10.5042 170.832 11.5908C170.843 12.6163 170.657 13.634 170.286 14.5868Z" fill="#0F3239"/>
<path d="M179.305 0.541949V22.339H190.061C190.435 21.1969 190.805 20.1054 191.187 19.0468H182.838V12.6649H193.671C194.167 11.4823 194.663 10.3857 195.127 9.37271H182.838V3.80125H197.973C199.214 1.60559 199.995 0.52422 199.998 0.509026H179.305V0.541949Z" fill="#0F3239"/>
<path d="M87.8926 22.3394H91.4332V12.6754H101.395C101.891 11.4928 102.388 10.3962 102.852 9.38322H91.4382V3.81176H105.7C106.32 2.68026 106.996 1.58145 107.725 0.519531H87.8926V22.3394Z" fill="#0F3239"/>
<path d="M130.922 11.3712C129.645 10.3869 127.669 9.72424 124.994 9.3832C123.912 9.24476 122.88 9.14429 121.898 9.08182L119.139 8.91723C118.283 8.86658 117.497 8.79565 116.779 8.70448C116.11 8.62677 115.452 8.47042 114.819 8.23851C113.578 7.79786 112.959 7.09553 112.96 6.1315C112.96 5.22656 113.53 4.50903 114.67 3.97889C115.81 3.44876 117.491 3.18284 119.714 3.18116C121.369 3.17638 123.018 3.3788 124.624 3.78389C126.279 4.21231 127.878 4.8388 129.388 5.65033L131.542 3.21154C128.436 1.064 124.581 -0.00976562 119.98 -0.00976562C116.506 -0.00976562 113.841 0.581147 111.985 1.76297C110.129 2.9448 109.206 4.56049 109.214 6.61011C109.179 7.51589 109.394 8.41343 109.834 9.20087C110.288 9.91953 110.931 10.4928 111.69 10.8546C112.667 11.3248 113.706 11.6449 114.774 11.8042C116.003 12.0136 117.443 12.1824 119.094 12.3107C120.667 12.412 122.068 12.5074 123.297 12.5969C124.345 12.6597 125.387 12.8156 126.408 13.0629C127.121 13.2159 127.785 13.5474 128.341 14.0278C128.783 14.4482 129.006 15.0408 129.006 15.8334C129.006 17.0152 128.345 17.9531 127.021 18.647C125.698 19.3409 123.761 19.6879 121.21 19.6879C119.327 19.6978 117.45 19.4421 115.635 18.9281C113.799 18.3848 112.046 17.5845 110.425 16.5501L108.479 19.1687C110.098 20.4675 111.96 21.4154 113.95 21.9544C116.314 22.5812 118.749 22.8802 121.191 22.8433C125.007 22.8433 127.901 22.2111 129.875 20.9465C131.848 19.682 132.84 17.8957 132.852 15.5878C132.845 13.7678 132.202 12.3622 130.922 11.3712Z" fill="#0F3239"/>
</g>
<defs>
<clipPath id="clip0_1214_315">
<rect width="200" height="23" fill="white"/>
</clipPath>
</defs>
</svg>
