<svg width="30" height="35" viewBox="0 0 30 35" fill="none" xmlns="http://www.w3.org/2000/svg">
<g clip-path="url(#clip0_1125_1015)">
<path d="M16.2699 15.5539C16.2699 13.2319 16.2758 10.9099 16.264 8.58796C16.262 8.11717 16.4371 7.77007 16.8089 7.51673C17.3971 7.11577 18.0265 7.00007 18.6895 7.29131C19.1911 7.51074 19.4743 7.88577 19.4743 8.47824C19.4684 12.0609 19.4743 15.6437 19.4783 19.2264C19.4783 19.8248 19.4842 20.4233 19.4881 21.0217C19.4881 21.1015 19.4881 21.1813 19.5019 21.2611C19.5294 21.4227 19.6317 21.5244 19.7891 21.5284C19.9563 21.5344 20.0664 21.4367 20.1018 21.2651C20.1392 21.0816 20.1038 20.9001 20.1038 20.7165C20.1018 19.2483 20.0979 17.7801 20.1058 16.3119C20.1077 15.8631 20.391 15.5838 20.749 15.3783C21.5929 14.8976 22.604 15.2846 22.9365 16.2062C22.9778 16.3219 22.9876 16.4376 22.9876 16.5573C22.9837 18.0574 22.9778 19.5575 22.9758 21.0577C22.9758 21.1374 22.9758 21.2172 22.9955 21.293C23.0348 21.4546 23.1528 21.5344 23.3083 21.5304C23.4597 21.5264 23.5502 21.4227 23.5817 21.2771C23.5994 21.2013 23.5974 21.1195 23.5974 21.0397C23.6033 19.7869 23.6073 18.5342 23.6132 17.2814C23.6171 16.4955 24.0971 15.9409 24.876 15.8491C25.3482 15.7933 25.7849 15.893 26.1547 16.2162C26.432 16.4596 26.5678 16.7608 26.5658 17.1418C26.5579 18.4344 26.5638 19.7271 26.5638 21.0197C26.5638 21.0756 26.5599 21.1315 26.5638 21.1873C26.5815 21.3968 26.7153 21.5464 26.8825 21.5304C27.0891 21.5105 27.1854 21.3788 27.1854 21.1733C27.1854 20.6387 27.1854 20.1041 27.1854 19.5695C27.1854 19.1626 27.1815 18.7556 27.1854 18.3487C27.1913 17.828 27.4431 17.455 27.8897 17.2196C28.2674 17.0201 28.6726 16.9862 29.0837 17.0959C29.5716 17.2256 29.8647 17.5527 29.9552 18.0574C29.9807 18.205 29.9847 18.3586 29.9847 18.5102C29.9886 20.5769 29.9729 22.6435 29.9984 24.7102C30.0122 25.8253 29.7093 26.8447 29.2647 27.8381C28.8457 28.7717 28.3185 29.6374 27.7067 30.4513C27.6084 30.583 27.5887 30.7206 27.5887 30.8762C27.5887 32.1609 27.5789 33.4456 27.5848 34.7303C27.5848 34.9337 27.5435 35.0036 27.3271 35.0036C23.9908 34.9956 20.6546 34.9956 17.3184 35.0016C17.1138 35.0016 17.0528 34.9557 17.0548 34.7402C17.0646 33.5114 17.0489 32.2826 17.0685 31.0538C17.0744 30.7167 16.9682 30.4912 16.7204 30.2738C15.8214 29.4878 14.9913 28.6261 14.1808 27.7463C13.2209 26.703 12.5107 25.5021 11.8832 24.2314C10.8564 22.1508 9.78823 20.0902 8.73779 18.0215C8.54894 17.6505 8.54698 17.6485 8.94237 17.5029C9.53447 17.2854 10.1364 17.1538 10.7679 17.3094C11.5508 17.5029 12.0445 18.0594 12.4655 18.7057C12.6071 18.9252 12.7546 19.1486 12.851 19.39C13.2012 20.2577 13.8739 20.8721 14.466 21.5484C14.8457 21.9833 15.2411 22.4062 15.6286 22.835C15.7466 22.9647 15.8568 23.1143 16.0653 23.0345C16.2837 22.9507 16.2699 22.7612 16.2679 22.5737C16.2679 20.2358 16.2679 17.8978 16.2679 15.5599L16.2699 15.5539Z" fill="white"/>
<path d="M3.9577 25.7658C4.31926 25.7658 4.67744 25.7591 5.039 25.7658C5.74522 25.7826 6.22166 26.2306 6.2318 26.8738C6.24194 27.5003 5.75535 27.9785 5.04575 27.9886C3.77523 28.0021 2.50471 28.0054 1.2342 27.9886C0.426604 27.9785 0.0143609 27.5575 0.00760284 26.7593C-0.00253428 25.493 -0.00253428 24.2267 0.00760284 22.9604C0.0143609 22.2565 0.473911 21.7917 1.12944 21.7985C1.77146 21.8052 2.20398 22.2565 2.2175 22.9469C2.22425 23.3174 2.2175 23.6878 2.2175 24.1358C2.6365 23.8394 2.90006 23.5194 3.19404 23.2332C3.80903 22.6303 4.41387 22.0106 5.02886 21.4078C5.55599 20.8925 6.22166 20.8656 6.68459 21.327C7.13062 21.7681 7.10359 22.4855 6.60349 22.9873C5.71143 23.8832 4.80584 24.7689 3.90702 25.658C3.92391 25.6917 3.93743 25.7288 3.95432 25.7624L3.9577 25.7658Z" fill="#B7BABC"/>
<path d="M25.1049 2.23516C24.6993 2.23516 24.3511 2.23516 24.003 2.23516C23.2865 2.23179 22.8133 1.80052 22.7964 1.15023C22.7829 0.520162 23.2223 0.0349756 23.9151 0.0214982C25.2367 -0.00545666 26.5616 -0.00882601 27.8865 0.0214982C28.6199 0.0383449 28.9985 0.489838 28.9985 1.2311C28.9985 2.49797 29.0019 3.76148 28.9985 5.02836C28.9985 5.75277 28.5693 6.211 27.9068 6.211C27.2443 6.211 26.8117 5.76287 26.788 5.0452C26.7813 4.81609 26.7914 4.58697 26.7813 4.35785C26.7745 4.22982 26.8489 4.04787 26.7238 3.98386C26.5819 3.9131 26.5075 4.10178 26.4196 4.18939C25.6423 4.95423 24.8683 5.72918 24.0943 6.49739C24.0267 6.56478 23.9625 6.63217 23.8915 6.69618C23.4149 7.11061 22.7491 7.10051 22.3164 6.66923C21.8973 6.25143 21.8872 5.55397 22.33 5.10248C23.104 4.31405 23.8949 3.5391 24.6756 2.75741C24.8142 2.61927 24.9832 2.50134 25.1049 2.23853V2.23516Z" fill="#B7BABC"/>
</g>
<defs>
<clipPath id="clip0_1125_1015">
<rect width="30" height="35" fill="white"/>
</clipPath>
</defs>
</svg>
