<svg width="124" height="15" viewBox="0 0 124 15" fill="none" xmlns="http://www.w3.org/2000/svg">
<path d="M14.0249 6.98839C13.2263 6.384 11.9922 5.97709 10.3227 5.76768C9.64698 5.68267 9.00229 5.62098 8.38861 5.58262L6.66532 5.48156C6.13016 5.45046 5.63889 5.4069 5.19154 5.35092C4.77335 5.30302 4.36204 5.20702 3.96572 5.06479C3.19293 4.79422 2.80653 4.36296 2.80653 3.771C2.80653 3.21533 3.16245 2.77473 3.87429 2.44921C4.58612 2.12368 5.63631 1.9604 7.02486 1.95936C8.05839 1.95643 9.08838 2.08072 10.0917 2.32946C11.1251 2.59253 12.1238 2.97722 13.0672 3.47554L14.4123 1.97802C12.4721 0.659337 10.0649 0 7.19068 0C5.02108 0 3.35668 0.362845 2.19749 1.08854C1.03831 1.81423 0.461298 2.80633 0.466463 4.06489C0.445183 4.62085 0.578814 5.17177 0.852343 5.65572C1.13664 6.09679 1.53888 6.44867 2.01308 6.67115C2.62296 6.95992 3.2721 7.15644 3.93938 7.2543C4.707 7.38285 5.60635 7.48652 6.63743 7.56531C7.61995 7.62751 8.49502 7.68609 9.26265 7.74103C9.91747 7.77969 10.5677 7.87544 11.206 8.02717C11.6511 8.1211 12.066 8.3247 12.4132 8.61964C12.6891 8.87778 12.827 9.24736 12.827 9.72839C12.827 10.4541 12.4137 11.03 11.5872 11.4561C10.7607 11.8821 9.55089 12.0952 7.95778 12.0952C5.57215 12.1213 3.23009 11.4532 1.21498 10.1716L0 11.7795C1.00892 12.5761 2.16895 13.1581 3.40937 13.4901C4.88547 13.8749 6.4065 14.0585 7.93144 14.0359C10.3149 14.0359 12.1229 13.6476 13.3554 12.8711C14.588 12.0947 15.2053 10.9978 15.2074 9.58067C15.2177 8.46103 14.8235 7.59694 14.0249 6.98839Z" fill="#F8F8F8"/>
<path d="M30.6997 8.68889C30.7148 9.18387 30.6063 9.67395 30.3859 10.1059C30.1656 10.5379 29.8418 10.8953 29.4497 11.1393C28.6174 11.705 27.3852 11.9873 25.7531 11.9862C24.1211 11.9851 22.8798 11.7029 22.0292 11.1393C21.6355 10.8965 21.31 10.5397 21.0881 10.1076C20.8662 9.67556 20.7563 9.18483 20.7706 8.68889V0H18.7171V9.22077C18.7138 9.89783 18.8829 10.5624 19.2053 11.1393C19.5566 11.7589 20.0337 12.2807 20.5992 12.6637C21.2845 13.1279 22.0333 13.4679 22.8169 13.6705C24.7432 14.1569 26.7445 14.1602 28.6721 13.68C29.4508 13.4807 30.1939 13.1405 30.8711 12.6732C31.4344 12.2867 31.9114 11.7657 32.2665 11.1488C32.5911 10.5695 32.7604 9.90117 32.7546 9.22077V0H30.6997V8.68889Z" fill="#F8F8F8"/>
<path d="M49.2593 7.43939C49.6747 7.2585 50.0514 7.00501 50.3702 6.69186C50.6913 6.36723 50.94 5.98313 51.101 5.56309C51.2825 5.07855 51.3706 4.56639 51.3612 4.05159C51.3612 2.79575 50.9628 1.80652 50.1661 1.08391C49.3694 0.361305 48.261 0 46.841 0H36.2643V12.8679H38.4878V7.95518H45.2673L48.8978 12.8605H51.4718L47.8787 7.84754C48.3556 7.7703 48.8198 7.63307 49.2593 7.43939ZM38.4878 6.01759V1.9301H46.3034C48.1556 1.9301 49.0821 2.63477 49.0832 4.04411C49.0832 4.68399 48.864 5.17289 48.4256 5.51077C47.9873 5.84865 47.3479 6.01759 46.5076 6.01759H38.4878Z" fill="#F8F8F8"/>
<path d="M54.9811 12.8679H57.0696V7.16876H62.9457C63.2384 6.4713 63.5311 5.82462 63.8048 5.22722H57.0725V1.94154H65.4849C65.8507 1.27426 66.2493 0.626252 66.6792 0H54.9811V12.8679Z" fill="#F8F8F8"/>
<path d="M83.1146 6.98993C82.3791 6.3854 81.2411 5.97841 79.7006 5.76895C79.0775 5.68392 78.483 5.62222 77.9171 5.58385L76.328 5.48276C75.8354 5.45166 75.3824 5.40809 74.969 5.3521C74.5838 5.30437 74.2049 5.20834 73.84 5.06591C73.1255 4.79527 72.7687 4.36392 72.7696 3.77183C72.7696 3.21604 73.0978 2.77534 73.7542 2.44975C74.4107 2.12415 75.3791 1.96083 76.6595 1.95979C77.6126 1.95686 78.5624 2.08118 79.4877 2.32998C80.4406 2.5931 81.3616 2.97788 82.2315 3.4763L83.4719 1.97846C81.6827 0.659483 79.4629 0 76.8125 0C74.8118 0 73.2769 0.362925 72.208 1.08878C71.1391 1.81463 70.607 2.80695 70.6117 4.06578C70.5919 4.62209 70.7156 5.17334 70.969 5.65697C71.2303 6.09835 71.6008 6.45041 72.0379 6.67263C72.6003 6.96146 73.1989 7.15801 73.8143 7.2559C74.5221 7.38448 75.3515 7.48817 76.3023 7.56698C77.2083 7.62919 78.0153 7.68778 78.7231 7.74274C79.327 7.78128 79.9266 7.87705 80.5152 8.02894C80.9257 8.12289 81.3082 8.32654 81.6284 8.62154C81.8828 8.87973 82.0114 9.2437 82.0114 9.73054C82.0114 10.4564 81.6303 11.0324 80.8681 11.4586C80.106 11.8848 78.9903 12.0978 77.5213 12.0978C76.4363 12.1039 75.3557 11.9469 74.3102 11.6312C73.2527 11.2975 72.2427 10.806 71.3091 10.1707L70.1887 11.779C71.1212 12.5767 72.1934 13.1589 73.3398 13.4899C74.701 13.8749 76.1036 14.0585 77.5098 14.0359C79.7077 14.0359 81.375 13.6475 82.5116 12.8709C83.6482 12.0942 84.2198 10.9972 84.2265 9.57967C84.2226 8.46186 83.852 7.59861 83.1146 6.98993Z" fill="#F8F8F8"/>
<path d="M90.0755 0H87.7358V12.8679H90.0755V0Z" fill="#F8F8F8"/>
<path d="M106.864 1.79633C106.207 1.20447 105.439 0.7539 104.605 0.471835C103.639 0.145423 102.627 -0.013771 101.609 0.000932971H93.5848V12.8677H102.011C102.894 12.8748 103.772 12.7271 104.605 12.4312C105.392 12.1523 106.118 11.7207 106.742 11.1605C107.396 10.5971 107.919 9.89384 108.273 9.10112C108.628 8.3084 108.805 7.44591 108.792 6.57557C108.804 5.64793 108.634 4.72706 108.292 3.86678C107.975 3.07712 107.487 2.36965 106.864 1.79633ZM106.189 8.29173C105.985 8.81204 105.682 9.28614 105.296 9.68649C104.907 10.0827 104.442 10.394 103.93 10.6014C103.376 10.8252 102.783 10.937 102.187 10.9303H95.6878V1.93834H101.784C102.444 1.92895 103.099 2.04037 103.719 2.26723C104.274 2.47054 104.781 2.78814 105.209 3.20005C105.628 3.60857 105.956 4.10222 106.173 4.64862C106.406 5.24489 106.522 5.8818 106.513 6.52325C106.52 7.12855 106.41 7.7293 106.189 8.29173Z" fill="#F8F8F8"/>
<path d="M112.302 0.0194071V12.8679H118.382C118.594 12.1947 118.803 11.5513 119.019 10.9273H114.299V7.16543H120.423C120.704 6.46829 120.984 5.82191 121.247 5.22479H114.299V1.94064H122.855C123.557 0.646381 123.999 0.00895678 124 0H112.302V0.0194071Z" fill="#F8F8F8"/>
</svg>
