<svg width="30" height="30" viewBox="0 0 30 30" fill="none" xmlns="http://www.w3.org/2000/svg">
<path fill-rule="evenodd" clip-rule="evenodd" d="M20.003 2C23.8675 2 27 5.135 27 8.997V20.003C27 23.8675 23.865 27 20.003 27H8.997C5.1325 27 2 23.865 2 20.003V8.997C2 5.1325 5.135 2 8.997 2H20.003ZM14.5 8C10.91 8 8 10.91 8 14.5C8 18.09 10.91 21 14.5 21C18.09 21 21 18.09 21 14.5C21 10.91 18.09 8 14.5 8ZM14.5 10C15.0909 10 15.6761 10.1164 16.2221 10.3425C16.768 10.5687 17.2641 10.9002 17.682 11.318C18.0998 11.7359 18.4313 12.232 18.6575 12.7779C18.8836 13.3239 19 13.9091 19 14.5C19 15.0909 18.8836 15.6761 18.6575 16.2221C18.4313 16.768 18.0998 17.2641 17.682 17.682C17.2641 18.0998 16.768 18.4313 16.2221 18.6575C15.6761 18.8836 15.0909 19 14.5 19C13.3065 19 12.1619 18.5259 11.318 17.682C10.4741 16.8381 10 15.6935 10 14.5C10 13.3065 10.4741 12.1619 11.318 11.318C12.1619 10.4741 13.3065 10 14.5 10ZM21.75 5.5C21.2859 5.5 20.8408 5.68437 20.5126 6.01256C20.1844 6.34075 20 6.78587 20 7.25C20 7.71413 20.1844 8.15925 20.5126 8.48744C20.8408 8.81563 21.2859 9 21.75 9C22.2141 9 22.6592 8.81563 22.9874 8.48744C23.3156 8.15925 23.5 7.71413 23.5 7.25C23.5 6.78587 23.3156 6.34075 22.9874 6.01256C22.6592 5.68437 22.2141 5.5 21.75 5.5Z" fill="white"/>
</svg>
