<svg width="30" height="30" viewBox="0 0 30 30" fill="none" xmlns="http://www.w3.org/2000/svg">
<path d="M15 10.3125C13.7568 10.3125 12.5645 10.8064 11.6854 11.6854C10.8064 12.5645 10.3125 13.7568 10.3125 15C10.3125 16.2432 10.8064 17.4355 11.6854 18.3146C12.5645 19.1936 13.7568 19.6875 15 19.6875C16.2432 19.6875 17.4355 19.1936 18.3146 18.3146C19.1936 17.4355 19.6875 16.2432 19.6875 15C19.6875 13.7568 19.1936 12.5645 18.3146 11.6854C17.4355 10.8064 16.2432 10.3125 15 10.3125Z" fill="#F8F8F8"/>
<path fill-rule="evenodd" clip-rule="evenodd" d="M15 1.5625C15.2486 1.5625 15.4871 1.66127 15.6629 1.83709C15.8387 2.0129 15.9375 2.25136 15.9375 2.5V4.1025C18.5048 4.32381 20.9116 5.44424 22.7337 7.26633C24.5558 9.08842 25.6762 11.4952 25.8975 14.0625H27.5C27.7486 14.0625 27.9871 14.1613 28.1629 14.3371C28.3387 14.5129 28.4375 14.7514 28.4375 15C28.4375 15.2486 28.3387 15.4871 28.1629 15.6629C27.9871 15.8387 27.7486 15.9375 27.5 15.9375H25.8975C25.6762 18.5048 24.5558 20.9116 22.7337 22.7337C20.9116 24.5558 18.5048 25.6762 15.9375 25.8975V27.5C15.9375 27.7486 15.8387 27.9871 15.6629 28.1629C15.4871 28.3387 15.2486 28.4375 15 28.4375C14.7514 28.4375 14.5129 28.3387 14.3371 28.1629C14.1613 27.9871 14.0625 27.7486 14.0625 27.5V25.8975C11.4952 25.6762 9.08842 24.5558 7.26633 22.7337C5.44424 20.9116 4.32381 18.5048 4.1025 15.9375H2.5C2.25136 15.9375 2.0129 15.8387 1.83709 15.6629C1.66127 15.4871 1.5625 15.2486 1.5625 15C1.5625 14.7514 1.66127 14.5129 1.83709 14.3371C2.0129 14.1613 2.25136 14.0625 2.5 14.0625H4.1025C4.32381 11.4952 5.44424 9.08842 7.26633 7.26633C9.08842 5.44424 11.4952 4.32381 14.0625 4.1025V2.5C14.0625 2.25136 14.1613 2.0129 14.3371 1.83709C14.5129 1.66127 14.7514 1.5625 15 1.5625ZM5.9375 15C5.9375 16.1901 6.17191 17.3686 6.62734 18.4681C7.08277 19.5676 7.75031 20.5666 8.59185 21.4082C9.43338 22.2497 10.4324 22.9172 11.5319 23.3727C12.6314 23.8281 13.8099 24.0625 15 24.0625C16.1901 24.0625 17.3686 23.8281 18.4681 23.3727C19.5676 22.9172 20.5666 22.2497 21.4082 21.4082C22.2497 20.5666 22.9172 19.5676 23.3727 18.4681C23.8281 17.3686 24.0625 16.1901 24.0625 15C24.0625 12.5965 23.1077 10.2914 21.4082 8.59185C19.7086 6.8923 17.4035 5.9375 15 5.9375C12.5965 5.9375 10.2914 6.8923 8.59185 8.59185C6.8923 10.2914 5.9375 12.5965 5.9375 15Z" fill="#F8F8F8"/>
</svg>
