<svg width="27" height="27" viewBox="0 0 27 27" fill="none" xmlns="http://www.w3.org/2000/svg">
<circle cx="13.5" cy="13.5" r="13.5" fill="#F8F8F8"/>
<path d="M18.1845 12.635C17.5477 12.1477 16.5635 11.8196 15.2321 11.6507C14.6932 11.5821 14.1791 11.5324 13.6897 11.5015L12.3154 11.42C11.8887 11.3949 11.4969 11.3598 11.1401 11.3146C10.8066 11.276 10.4786 11.1986 10.1626 11.0839C9.54629 10.8658 9.23814 10.518 9.23814 10.0407C9.23814 9.59264 9.52198 9.23737 10.0897 8.97489C10.6573 8.7124 11.4948 8.58074 12.6022 8.57991C13.4264 8.57754 14.2478 8.67776 15.0479 8.87833C15.872 9.09045 16.6685 9.40065 17.4208 9.80245L18.4935 8.59495C16.9462 7.53165 15.0265 7 12.7344 7C11.0042 7 9.67687 7.29258 8.75245 7.87773C7.82803 8.46288 7.36787 9.26285 7.37199 10.2777C7.35502 10.726 7.46159 11.1702 7.67972 11.5604C7.90644 11.9161 8.22722 12.1998 8.60538 12.3792C9.09175 12.612 9.60942 12.7705 10.1416 12.8494C10.7537 12.9531 11.4709 13.0367 12.2932 13.1002C13.0767 13.1503 13.7746 13.1976 14.3867 13.2419C14.9089 13.2731 15.4275 13.3503 15.9365 13.4726C16.2915 13.5483 16.6224 13.7125 16.8992 13.9503C17.1192 14.1585 17.2292 14.4565 17.2292 14.8444C17.2292 15.4295 16.8997 15.8939 16.2405 16.2374C15.5814 16.581 14.6166 16.7528 13.3461 16.7528C11.4437 16.7739 9.57592 16.2351 7.96891 15.2017L7 16.4983C7.80459 17.1406 8.72969 17.6099 9.71889 17.8775C10.896 18.1879 12.109 18.3359 13.3251 18.3176C15.2259 18.3176 16.6677 18.0046 17.6507 17.3785C18.6336 16.7524 19.1259 15.868 19.1275 14.7252C19.1357 13.8224 18.8214 13.1257 18.1845 12.635Z" fill="url(#paint0_linear_1037_103)"/>
<defs>
<linearGradient id="paint0_linear_1037_103" x1="51.5" y1="19" x2="11.9536" y2="11.2366" gradientUnits="userSpaceOnUse">
<stop offset="0.229391" stop-color="white" stop-opacity="0"/>
<stop offset="1" stop-color="#0F3239"/>
</linearGradient>
</defs>
</svg>
