<svg width="30" height="30" viewBox="0 0 30 30" fill="none" xmlns="http://www.w3.org/2000/svg">
<path d="M14.9929 2.5C12.5207 2.5 10.1039 3.23311 8.0483 4.60663C5.99268 5.98015 4.39053 7.93238 3.44443 10.2165C2.49834 12.5005 2.25079 15.0139 2.73311 17.4386C3.21542 19.8634 4.40593 22.0907 6.15409 23.8388C7.90225 25.587 10.1295 26.7775 12.5543 27.2598C14.9791 27.7421 17.4924 27.4946 19.7765 26.5485C22.0605 25.6024 24.0128 24.0002 25.3863 21.9446C26.7598 19.889 27.4929 17.4723 27.4929 15C27.4931 13.3584 27.1698 11.7329 26.5417 10.2163C25.9136 8.69966 24.9928 7.32162 23.8321 6.16086C22.6713 5.0001 21.2933 4.07936 19.7766 3.45123C18.26 2.82309 16.6345 2.49986 14.9929 2.5ZM18.9673 21.4406C18.9205 21.5572 18.8493 21.6626 18.7585 21.7495C18.6677 21.8364 18.5594 21.9028 18.4408 21.9445C18.3221 21.9861 18.196 22.0018 18.0708 21.9907C17.9456 21.9796 17.8242 21.9418 17.7148 21.88L14.3215 19.2432L12.1436 21.2525C12.093 21.2898 12.0339 21.3139 11.9717 21.3224C11.9094 21.3309 11.846 21.3236 11.7873 21.3012L12.2048 17.5656L12.2182 17.5762L12.2267 17.5024C12.2267 17.5024 18.333 11.9431 18.5817 11.7062C18.8336 11.4699 18.7505 11.4187 18.7505 11.4187C18.7648 11.1305 18.2986 11.4187 18.2986 11.4187L10.2079 16.6237L6.83856 15.4762C6.83856 15.4762 6.32106 15.2906 6.27231 14.8825C6.22106 14.4775 6.85543 14.2575 6.85543 14.2575L20.2517 8.93561C20.2517 8.93561 21.3529 8.44496 21.3529 9.2575L18.9673 21.4406Z" fill="white"/>
</svg>
