<svg width="22" height="22" viewBox="0 0 22 22" fill="none" xmlns="http://www.w3.org/2000/svg">
<path d="M4.57143 7.125C4.57143 6.2962 4.91008 5.50134 5.51287 4.91529C6.11567 4.32924 6.93323 4 7.78571 4H14.2143C15.0668 4 15.8843 4.32924 16.4871 4.91529C17.0899 5.50134 17.4286 6.2962 17.4286 7.125V9.0625C18.1546 9.20658 18.8071 9.59011 19.2757 10.1482C19.7443 10.7063 20.0002 11.4046 20 12.125V18.375C20 18.5408 19.9323 18.6997 19.8117 18.8169C19.6912 18.9342 19.5276 19 19.3571 19C19.1866 19 19.0231 18.9342 18.9026 18.8169C18.782 18.6997 18.7143 18.5408 18.7143 18.375V15.25H3.28571V18.375C3.28571 18.5408 3.21799 18.6997 3.09743 18.8169C2.97687 18.9342 2.81335 19 2.64286 19C2.47236 19 2.30885 18.9342 2.18829 18.8169C2.06773 18.6997 2 18.5408 2 18.375V12.125C1.99985 11.4046 2.25572 10.7063 2.7243 10.1482C3.19289 9.59011 3.84541 9.20658 4.57143 9.0625V7.125ZM3.28571 14H18.7143V12.125C18.7143 11.6277 18.5111 11.1508 18.1494 10.7992C17.7877 10.4475 17.2972 10.25 16.7857 10.25H5.21429C4.7028 10.25 4.21226 10.4475 3.85058 10.7992C3.4889 11.1508 3.28571 11.6277 3.28571 12.125V14ZM16.1429 7.125C16.1429 6.62772 15.9397 6.15081 15.578 5.79917C15.2163 5.44754 14.7258 5.25 14.2143 5.25H7.78571C7.27423 5.25 6.78369 5.44754 6.42201 5.79917C6.06033 6.15081 5.85714 6.62772 5.85714 7.125V9H7.14286V8.375C7.14286 8.20924 7.21059 8.05027 7.33115 7.93306C7.4517 7.81585 7.61522 7.75 7.78571 7.75H9.71429C9.88478 7.75 10.0483 7.81585 10.1689 7.93306C10.2894 8.05027 10.3571 8.20924 10.3571 8.375V9H11.6429V8.375C11.6429 8.20924 11.7106 8.05027 11.8311 7.93306C11.9517 7.81585 12.1152 7.75 12.2857 7.75H14.2143C14.3848 7.75 14.5483 7.81585 14.6689 7.93306C14.7894 8.05027 14.8571 8.20924 14.8571 8.375V9H16.1429V7.125Z" fill="#7BBCB9"/>
</svg>
