<svg width="22" height="22" viewBox="0 0 22 22" fill="none" xmlns="http://www.w3.org/2000/svg">
<path d="M5.04156 5.27083C5.04156 4.96694 5.16228 4.67549 5.37716 4.46061C5.59205 4.24572 5.88349 4.125 6.18739 4.125C6.49128 4.125 6.78273 4.24572 6.99761 4.46061C7.2125 4.67549 7.33322 4.96694 7.33322 5.27083V11.033C7.77047 11.0743 8.22972 11.1549 8.70822 11.2842V10.0833H14.6666V13.2917C15.1305 13.2843 15.5919 13.2228 16.0416 13.1083V5.27083C16.0416 4.60227 15.776 3.96108 15.3032 3.48834C14.8305 3.01559 14.1893 2.75 13.5207 2.75C12.8522 2.75 12.211 3.01559 11.7382 3.48834C11.2655 3.96108 10.9999 4.60227 10.9999 5.27083V5.72917C10.9999 5.9115 11.0723 6.08637 11.2013 6.2153C11.3302 6.34423 11.5051 6.41667 11.6874 6.41667C11.8697 6.41667 12.0446 6.34423 12.1735 6.2153C12.3025 6.08637 12.3749 5.9115 12.3749 5.72917V5.27083C12.3749 4.96694 12.4956 4.67549 12.7105 4.46061C12.9254 4.24572 13.2168 4.125 13.5207 4.125C13.8246 4.125 14.1161 4.24572 14.3309 4.46061C14.5458 4.67549 14.6666 4.96694 14.6666 5.27083V8.70833H8.70822V5.27083C8.70822 4.60227 8.44263 3.96108 7.96989 3.48834C7.49714 3.01559 6.85596 2.75 6.18739 2.75C5.51882 2.75 4.87764 3.01559 4.40489 3.48834C3.93214 3.96108 3.66656 4.60227 3.66656 5.27083V5.72917C3.66656 5.9115 3.73899 6.08637 3.86792 6.2153C3.99685 6.34423 4.17172 6.41667 4.35406 6.41667C4.53639 6.41667 4.71126 6.34423 4.84019 6.2153C4.96912 6.08637 5.04156 5.9115 5.04156 5.72917V5.27083ZM3.92322 14.2322C3.79411 14.3581 3.62071 14.4282 3.44038 14.4274C3.26005 14.4267 3.08724 14.3551 2.95919 14.2281C2.83113 14.1012 2.75809 13.929 2.75581 13.7486C2.75352 13.5683 2.82218 13.3943 2.94697 13.2642H2.94789V13.2633L2.95064 13.2614L2.95431 13.2568L2.96531 13.2468C3.01179 13.2001 3.06075 13.1561 3.11197 13.1147C3.24371 13.006 3.38142 12.9047 3.52447 12.8113C4.00263 12.5024 4.52586 12.2695 5.07547 12.1211C6.44681 11.7489 8.37822 11.7764 10.7588 13.1368C12.8726 14.344 14.7307 14.3376 16.0544 14.0461C16.5985 13.9271 17.126 13.7424 17.6256 13.4961C17.8086 13.4043 17.9864 13.3024 18.1581 13.1908L18.1591 13.1899L18.1609 13.189C18.3088 13.0854 18.4916 13.0441 18.6697 13.0742C18.8479 13.1042 19.007 13.2032 19.1127 13.3496C19.2185 13.4961 19.2623 13.6783 19.2348 13.8568C19.2073 14.0353 19.1106 14.1958 18.9657 14.3037H18.9648L18.963 14.3055L18.9584 14.3083L18.9456 14.3174C18.8855 14.3602 18.8237 14.4006 18.7604 14.4384C18.5908 14.5427 18.4164 14.6391 18.2379 14.7272C17.6376 15.0236 17.0035 15.2458 16.3496 15.389C14.7436 15.7428 12.5289 15.7309 10.0768 14.3303C7.99689 13.1423 6.43764 13.1753 5.4348 13.4475C5.02426 13.5566 4.63353 13.7298 4.27705 13.9608C4.15612 14.0388 4.04149 14.1262 3.93422 14.2221L3.92322 14.2322ZM2.95522 17.9034C3.08462 18.0307 3.25911 18.1017 3.44062 18.1008C3.62214 18.1 3.79595 18.0274 3.92414 17.8988L3.93422 17.8897L3.99564 17.8347C4.05522 17.7852 4.14964 17.7118 4.27705 17.6275C4.53372 17.4598 4.92239 17.2535 5.4348 17.1142C6.43856 16.8428 7.99689 16.8089 10.0768 17.9969C12.5289 19.3976 14.7426 19.4095 16.3505 19.0557C17.0044 18.9125 17.6385 18.6902 18.2388 18.3938C18.468 18.2801 18.6903 18.1528 18.9043 18.0125L18.9456 17.985L18.9584 17.9758L18.963 17.9722L18.9648 17.9712L18.9657 17.9703C19.1106 17.8625 19.2073 17.702 19.2348 17.5235C19.2623 17.3449 19.2185 17.1627 19.1127 17.0163C19.007 16.8698 18.8479 16.7709 18.6697 16.7408C18.4916 16.7108 18.3088 16.752 18.1609 16.8557H18.1591L18.1581 16.8575L18.138 16.8713L18.039 16.9354C17.9473 16.9904 17.8089 17.0711 17.6256 17.1628C17.2589 17.3452 16.7217 17.5661 16.0544 17.7128C14.7307 18.0052 12.8736 18.0107 10.7588 16.8034C8.37822 15.4431 6.44681 15.4156 5.07547 15.7878C4.39989 15.9711 3.87922 16.2452 3.52447 16.478C3.33989 16.5996 3.16435 16.7344 2.99922 16.8813L2.96531 16.9134L2.95431 16.9235L2.95064 16.9281L2.94881 16.9299L2.94697 16.9308C2.81931 17.0608 2.74848 17.2362 2.75002 17.4184C2.75157 17.6006 2.82537 17.7756 2.95522 17.9034Z" fill="#7BBCB9"/>
</svg>
