<svg width="22" height="22" viewBox="0 0 22 22" fill="none" xmlns="http://www.w3.org/2000/svg">
<path d="M3 12.8836V15.651C3 16.0705 3.16054 16.4727 3.44631 16.7693C3.73208 17.0658 4.11967 17.2324 4.52381 17.2324H6.04762V19.9999M19 12.8836V15.651C19 16.0705 18.8395 16.4727 18.5537 16.7693C18.2679 17.0658 17.8803 17.2324 17.4762 17.2324H15.9524V19.9999M11 8.53476V13.6743M5.66667 14.8603H16.3333M11 14.8603V19.9999M3 8.53476H19V6.95337H18.9345C18.7246 6.95337 18.5152 6.93539 18.3082 6.8996L18.0065 6.84741C15.4351 6.40248 13.069 5.11385 11.2552 3.17067L11.0952 2.99988H10.9048L10.7448 3.17067C8.93104 5.11385 6.56486 6.40248 3.99352 6.84741L3.69181 6.8996C3.48483 6.93539 3.27536 6.95337 3.06552 6.95337H3V8.53476Z" stroke="#7BBCB9" stroke-width="1.5"/>
</svg>
