<svg width="30" height="30" viewBox="0 0 30 30" fill="none" xmlns="http://www.w3.org/2000/svg">
<g clip-path="url(#clip0_1170_54)">
<path fill-rule="evenodd" clip-rule="evenodd" d="M3.21429 0H13.6607V2.48143C13.0054 2.36457 12.3324 2.39281 11.6892 2.56417C11.0459 2.73553 10.4481 3.04583 9.93773 3.47322C9.42738 3.90062 9.01694 4.4347 8.73533 5.03787C8.45371 5.64104 8.30777 6.29861 8.30777 6.96429C8.30777 7.62996 8.45371 8.28753 8.73533 8.8907C9.01694 9.49387 9.42738 10.028 9.93773 10.4553C10.4481 10.8827 11.0459 11.193 11.6892 11.3644C12.3324 11.5358 13.0054 11.564 13.6607 11.4471V13.6607H9.36C9.1013 13.6605 8.84808 13.7353 8.63094 13.8759C8.41381 14.0166 8.24206 14.2171 8.13644 14.4532C8.03082 14.6894 7.99587 14.9511 8.03579 15.2067C8.07572 15.4623 8.18882 15.7009 8.36143 15.8936C8.60253 16.1634 8.76039 16.4973 8.81597 16.8549C8.87154 17.2124 8.82246 17.5784 8.67464 17.9087C8.52682 18.239 8.28658 18.5195 7.9829 18.7163C7.67922 18.9131 7.32508 19.0178 6.96321 19.0178C6.60135 19.0178 6.24721 18.9131 5.94353 18.7163C5.63985 18.5195 5.39961 18.239 5.25179 17.9087C5.10397 17.5784 5.05488 17.2124 5.11046 16.8549C5.16604 16.4973 5.3239 16.1634 5.565 15.8936C5.73748 15.701 5.85055 15.4626 5.89055 15.2072C5.93055 14.9518 5.89578 14.6903 5.79043 14.4542C5.68507 14.2181 5.51365 14.0176 5.29683 13.8768C5.08002 13.736 4.82709 13.6609 4.56857 13.6607H0V3.21429C0 2.3618 0.338647 1.54424 0.941442 0.941442C1.54424 0.338647 2.3618 0 3.21429 0ZM0 16.3393V26.7857C0 27.6382 0.338647 28.4558 0.941442 29.0586C1.54424 29.6614 2.3618 30 3.21429 30H13.6607V25.4314C13.6605 25.1727 13.7353 24.9195 13.8759 24.7024C14.0166 24.4852 14.2171 24.3135 14.4532 24.2079C14.6894 24.1023 14.9511 24.0673 15.2067 24.1072C15.4623 24.1471 15.7009 24.2603 15.8936 24.4329C16.1634 24.674 16.4973 24.8318 16.8549 24.8874C17.2124 24.943 17.5784 24.8939 17.9087 24.7461C18.239 24.5982 18.5195 24.358 18.7163 24.0543C18.9131 23.7506 19.0178 23.3965 19.0178 23.0346C19.0178 22.6728 18.9131 22.3186 18.7163 22.015C18.5195 21.7113 18.239 21.471 17.9087 21.3232C17.5784 21.1754 17.2124 21.1263 16.8549 21.1819C16.4973 21.2375 16.1634 21.3953 15.8936 21.6364C15.701 21.8089 15.4626 21.922 15.2072 21.962C14.9518 22.002 14.6903 21.9672 14.4542 21.8619C14.2181 21.7565 14.0176 21.5851 13.8768 21.3683C13.736 21.1515 13.6609 20.8985 13.6607 20.64V16.3393H11.4471C11.564 16.9946 11.5358 17.6676 11.3644 18.3108C11.193 18.9541 10.8827 19.5519 10.4553 20.0623C10.028 20.5726 9.49387 20.9831 8.8907 21.2647C8.28753 21.5463 7.62996 21.6922 6.96429 21.6922C6.29861 21.6922 5.64104 21.5463 5.03787 21.2647C4.4347 20.9831 3.90062 20.5726 3.47322 20.0623C3.04583 19.5519 2.73553 18.9541 2.56417 18.3108C2.39281 17.6676 2.36457 16.9946 2.48143 16.3393H0ZM16.3393 16.3393V18.5529C16.9946 18.436 17.6676 18.4642 18.3108 18.6356C18.9541 18.807 19.5519 19.1173 20.0623 19.5447C20.5726 19.972 20.9831 20.5061 21.2647 21.1093C21.5463 21.7125 21.6922 22.37 21.6922 23.0357C21.6922 23.7014 21.5463 24.359 21.2647 24.9621C20.9831 25.5653 20.5726 26.0994 20.0623 26.5268C19.5519 26.9542 18.9541 27.2645 18.3108 27.4358C17.6676 27.6072 16.9946 27.6354 16.3393 27.5186V30H26.7857C27.6382 30 28.4558 29.6614 29.0586 29.0586C29.6614 28.4558 30 27.6382 30 26.7857V16.3393H25.4314C25.1727 16.3395 24.9195 16.2647 24.7024 16.1241C24.4852 15.9834 24.3135 15.7829 24.2079 15.5468C24.1023 15.3106 24.0673 15.0489 24.1072 14.7933C24.1471 14.5377 24.2603 14.2991 24.4329 14.1064C24.674 13.8366 24.8318 13.5027 24.8874 13.1451C24.943 12.7876 24.8939 12.4216 24.7461 12.0913C24.5982 11.761 24.358 11.4805 24.0543 11.2837C23.7506 11.0869 23.3965 10.9822 23.0346 10.9822C22.6728 10.9822 22.3186 11.0869 22.015 11.2837C21.7113 11.4805 21.471 11.761 21.3232 12.0913C21.1754 12.4216 21.1263 12.7876 21.1819 13.1451C21.2375 13.5027 21.3953 13.8366 21.6364 14.1064C21.8089 14.299 21.922 14.5374 21.962 14.7928C22.002 15.0482 21.9672 15.3097 21.8619 15.5458C21.7565 15.7819 21.5851 15.9824 21.3683 16.1232C21.1515 16.264 20.8985 16.3391 20.64 16.3393H16.3393ZM30 13.6607V3.21429C30 2.3618 29.6614 1.54424 29.0586 0.941442C28.4558 0.338647 27.6382 0 26.7857 0L16.3393 0V4.56857C16.3395 4.82727 16.2647 5.08049 16.1241 5.29763C15.9834 5.51476 15.7829 5.68652 15.5468 5.79213C15.3106 5.89775 15.0489 5.9327 14.7933 5.89278C14.5377 5.85285 14.2991 5.73975 14.1064 5.56714C13.8366 5.32604 13.5027 5.16818 13.1451 5.1126C12.7876 5.05703 12.4216 5.10611 12.0913 5.25393C11.761 5.40175 11.4805 5.64199 11.2837 5.94567C11.0869 6.24935 10.9822 6.60349 10.9822 6.96536C10.9822 7.32723 11.0869 7.68136 11.2837 7.98504C11.4805 8.28872 11.761 8.52896 12.0913 8.67678C12.4216 8.82461 12.7876 8.87369 13.1451 8.81811C13.5027 8.76254 13.8366 8.60467 14.1064 8.36357C14.299 8.19109 14.5374 8.07802 14.7928 8.03802C15.0482 7.99802 15.3097 8.03279 15.5458 8.13815C15.7819 8.2435 15.9824 8.41493 16.1232 8.63174C16.264 8.84855 16.3391 9.10148 16.3393 9.36V13.6607H18.5529C18.436 13.0054 18.4642 12.3324 18.6356 11.6892C18.807 11.0459 19.1173 10.4481 19.5447 9.93773C19.972 9.42738 20.5061 9.01694 21.1093 8.73533C21.7125 8.45371 22.37 8.30777 23.0357 8.30777C23.7014 8.30777 24.359 8.45371 24.9621 8.73533C25.5653 9.01694 26.0994 9.42738 26.5268 9.93773C26.9542 10.4481 27.2645 11.0459 27.4358 11.6892C27.6072 12.3324 27.6354 13.0054 27.5186 13.6607H30Z" fill="#7BBCB9"/>
</g>
<defs>
<clipPath id="clip0_1170_54">
<rect width="30" height="30" fill="white"/>
</clipPath>
</defs>
</svg>
