<svg width="30" height="30" viewBox="0 0 30 30" fill="none" xmlns="http://www.w3.org/2000/svg">
<path d="M15 4C13.992 4 13.1475 4.66 12.6015 5.2075C11.9805 5.83 11.382 6.6745 10.8615 7.6525C10.1895 8.92 9.6075 10.4875 9.2805 12.2395C8.37442 11.7677 7.41984 11.3955 6.4335 11.1295C5.694 10.936 4.974 10.8295 4.335 10.8445C3.78 10.858 2.934 10.9675 2.325 11.575C1.6935 12.208 1.5555 13.1455 1.6005 14.002C1.6425 14.794 1.845 15.7075 2.178 16.6555C2.541 17.6905 3.0825 18.823 3.81 19.951C3.16821 20.1926 2.5505 20.494 1.965 20.851C1.035 21.43 0 22.306 0 23.5C0 25.1305 1.7895 26.149 3.069 26.737C4.611 27.4465 6.699 28 9 28C11.325 28 13.44 27.436 15 26.7055C16.56 27.436 18.675 28 21 28C23.301 28 25.389 27.4465 26.931 26.737C28.2105 26.149 30 25.1305 30 23.5C30 22.3045 28.965 21.43 28.035 20.8525C27.4496 20.4949 26.8318 20.1931 26.19 19.951C26.9175 18.823 27.459 17.689 27.822 16.6555C28.155 15.709 28.3575 14.794 28.3995 14.0005C28.4445 13.1455 28.3065 12.208 27.675 11.575C27.066 10.9675 26.22 10.858 25.665 10.8445C25.026 10.8295 24.306 10.936 23.5665 11.1295C22.5802 11.3955 21.6256 11.7677 20.7195 12.2395C20.4251 10.6398 19.8916 9.09345 19.137 7.6525C18.618 6.6745 18.0195 5.83 17.397 5.2075C16.8525 4.66 16.0095 4 15 4Z" fill="#7BBCB9"/>
</svg>
