<svg width="30" height="30" viewBox="0 0 30 30" fill="none" xmlns="http://www.w3.org/2000/svg">
<g clip-path="url(#clip0_1170_272)">
<path d="M29.6283 3.94139C26.3846 1.48326 21.3915 0.0151367 16.2708 0.0151367C9.93896 0.0151367 4.77896 2.22576 2.11646 6.08076C0.865835 7.89014 0.17396 10.0351 0.0595852 12.452C-0.0416648 14.6045 0.32021 16.9858 1.13396 19.547C3.91271 11.2145 11.6752 4.69139 20.6246 4.69139C20.6246 4.69139 12.2508 6.89451 6.98584 13.7214C5.7845 15.2694 4.82019 16.9876 4.12459 18.8195C2.6376 22.3607 1.87265 26.1632 1.87459 30.0039H5.62459C5.62459 30.0039 5.05459 26.4226 6.04459 22.3051C7.50868 22.5141 8.98509 22.6249 10.464 22.637C13.9121 22.637 16.3627 21.8908 18.1796 20.2895C19.8071 18.8551 20.7052 16.9258 21.6558 14.8858C23.1071 11.7676 24.7515 8.23514 29.5271 5.50701C29.6618 5.43016 29.7754 5.32107 29.8576 5.18953C29.9398 5.058 29.9881 4.90812 29.9981 4.75333C30.0081 4.59854 29.9796 4.44368 29.9151 4.30263C29.8505 4.16158 29.752 4.03874 29.6283 3.94514V3.94139Z" fill="#7BBCB9"/>
</g>
<defs>
<clipPath id="clip0_1170_272">
<rect width="30" height="30" fill="white"/>
</clipPath>
</defs>
</svg>
