<svg width="30" height="30" viewBox="0 0 30 30" fill="none" xmlns="http://www.w3.org/2000/svg">
<g clip-path="url(#clip0_1170_278)">
<path fill-rule="evenodd" clip-rule="evenodd" d="M5.4339 0.0556648C4.85173 0.055265 4.2812 0.218771 3.78761 0.52747C3.29402 0.83617 2.8973 1.27759 2.64287 1.80122C2.38843 2.32485 2.28655 2.90954 2.34888 3.48837C2.41121 4.06719 2.63524 4.61678 2.99533 5.07424L13.3925 18.3064V26.7621H8.57104C8.1448 26.7621 7.73602 26.9314 7.43462 27.2328C7.13322 27.5342 6.9639 27.943 6.9639 28.3692C6.9639 28.7955 7.13322 29.2043 7.43462 29.5057C7.73602 29.8071 8.1448 29.9764 8.57104 29.9764H21.4282C21.8544 29.9764 22.2632 29.8071 22.5646 29.5057C22.866 29.2043 23.0353 28.7955 23.0353 28.3692C23.0353 27.943 22.866 27.5342 22.5646 27.2328C22.2632 26.9314 21.8544 26.7621 21.4282 26.7621H16.6068V18.3064L27.0039 5.07424C27.364 4.61678 27.588 4.06719 27.6503 3.48837C27.7127 2.90954 27.6108 2.32485 27.3564 1.80122C27.1019 1.27759 26.7052 0.83617 26.2116 0.52747C25.718 0.218771 25.1475 0.055265 24.5653 0.0556648H5.4339ZM21.0103 7.49995L24.3318 3.26995H5.66747L8.9889 7.49995H21.0103Z" fill="#7BBCB9"/>
</g>
<defs>
<clipPath id="clip0_1170_278">
<rect width="30" height="30" fill="white"/>
</clipPath>
</defs>
</svg>
