<svg width="30" height="30" viewBox="0 0 30 30" fill="none" xmlns="http://www.w3.org/2000/svg">
<path d="M4.28571 0.125C1.92188 0.125 0 2.03086 0 4.375V25.625C0 27.9691 1.92188 29.875 4.28571 29.875H25.7143C28.0781 29.875 30 27.9691 30 25.625V4.375C30 2.03086 28.0781 0.125 25.7143 0.125H4.28571ZM12.8571 15H16.0714C17.2567 15 18.2143 14.0504 18.2143 12.875C18.2143 11.6996 17.2567 10.75 16.0714 10.75H12.8571V15ZM16.0714 19.25H12.8571V21.375C12.8571 22.5504 11.8996 23.5 10.7143 23.5C9.52902 23.5 8.57143 22.5504 8.57143 21.375V9.15625C8.57143 7.68867 9.77009 6.5 11.25 6.5H16.0714C19.6205 6.5 22.5 9.35547 22.5 12.875C22.5 16.3945 19.6205 19.25 16.0714 19.25Z" fill="#7BBCB9"/>
</svg>
