<svg width="30" height="30" viewBox="0 0 30 30" fill="none" xmlns="http://www.w3.org/2000/svg">
<path d="M16.875 7.64883V6.5625H17.8125C18.3305 6.5625 18.75 6.14297 18.75 5.625V4.6875C18.75 4.16953 18.3305 3.75 17.8125 3.75H12.1875C11.6695 3.75 11.25 4.16953 11.25 4.6875V5.625C11.25 6.14297 11.6695 6.5625 12.1875 6.5625H13.125V7.64883C6.76699 8.56113 1.875 14.0145 1.875 20.625H28.125C28.125 14.0145 23.233 8.56113 16.875 7.64883ZM29.0625 22.5H0.9375C0.419531 22.5 0 22.9195 0 23.4375V25.3125C0 25.8305 0.419531 26.25 0.9375 26.25H29.0625C29.5805 26.25 30 25.8305 30 25.3125V23.4375C30 22.9195 29.5805 22.5 29.0625 22.5Z" fill="#7BBCB9"/>
</svg>
