<svg width="18" height="18" viewBox="0 0 18 18" fill="none" xmlns="http://www.w3.org/2000/svg">
<path d="M16.7143 3H1.28571C0.944722 3 0.617695 3.13696 0.376577 3.38076C0.135459 3.62456 0 3.95522 0 4.3V14.7C0 15.0448 0.135459 15.3754 0.376577 15.6192C0.617695 15.863 0.944722 16 1.28571 16H16.7143C17.0553 16 17.3823 15.863 17.6234 15.6192C17.8645 15.3754 18 15.0448 18 14.7V4.3C18 3.95522 17.8645 3.62456 17.6234 3.38076C17.3823 3.13696 17.0553 3 16.7143 3ZM15.3 4.3L9 8.707L2.7 4.3H15.3ZM1.28571 14.7V4.8915L8.63357 10.033C8.74118 10.1085 8.86903 10.1489 9 10.1489C9.13097 10.1489 9.25882 10.1085 9.36643 10.033L16.7143 4.8915V14.7H1.28571Z" fill="currentColor"/>
</svg>
