<svg viewBox="0 0 30 30" fill="none" xmlns="http://www.w3.org/2000/svg">
<path fill-rule="evenodd" clip-rule="evenodd" d="M21.003 3C24.8675 3 28 6.135 28 9.997V21.003C28 24.8675 24.865 28 21.003 28H9.997C6.1325 28 3 24.865 3 21.003V9.997C3 6.1325 6.135 3 9.997 3H21.003ZM15.5 9C11.91 9 9 11.91 9 15.5C9 19.09 11.91 22 15.5 22C19.09 22 22 19.09 22 15.5C22 11.91 19.09 9 15.5 9ZM15.5 11C16.0909 11 16.6761 11.1164 17.2221 11.3425C17.768 11.5687 18.2641 11.9002 18.682 12.318C19.0998 12.7359 19.4313 13.232 19.6575 13.7779C19.8836 14.3239 20 14.9091 20 15.5C20 16.0909 19.8836 16.6761 19.6575 17.2221C19.4313 17.768 19.0998 18.2641 18.682 18.682C18.2641 19.0998 17.768 19.4313 17.2221 19.6575C16.6761 19.8836 16.0909 20 15.5 20C14.3065 20 13.1619 19.5259 12.318 18.682C11.4741 17.8381 11 16.6935 11 15.5C11 14.3065 11.4741 13.1619 12.318 12.318C13.1619 11.4741 14.3065 11 15.5 11ZM22.75 6.5C22.2859 6.5 21.8408 6.68437 21.5126 7.01256C21.1844 7.34075 21 7.78587 21 8.25C21 8.71413 21.1844 9.15925 21.5126 9.48744C21.8408 9.81563 22.2859 10 22.75 10C23.2141 10 23.6592 9.81563 23.9874 9.48744C24.3156 9.15925 24.5 8.71413 24.5 8.25C24.5 7.78587 24.3156 7.34075 23.9874 7.01256C23.6592 6.68437 23.2141 6.5 22.75 6.5Z" fill="currentColor"/>
</svg>
