<svg width="18" height="18" viewBox="0 0 18 18" fill="none" xmlns="http://www.w3.org/2000/svg">
<g clip-path="url(#clip0_1214_336)">
<path d="M17.2148 2.85039L14.8186 0.456693C14.5261 0.16423 14.1346 0 13.7206 0C13.3066 0 12.9151 0.16198 12.6226 0.456693L10.0418 3.03262C9.74929 3.32508 9.58504 3.71879 9.58504 4.13273C9.58504 4.54893 9.74704 4.93813 10.0418 5.23285L12.0578 7.25084C11.5985 8.32078 10.9387 9.29291 10.1138 10.1147C9.28804 10.9449 8.32279 11.5996 7.25178 12.063L5.23577 10.045C4.94327 9.75253 4.55177 9.5883 4.13777 9.5883C3.93356 9.58755 3.73126 9.62755 3.54272 9.70597C3.35418 9.78439 3.18318 9.89965 3.03976 10.045L0.456752 12.6209C0.164251 12.9134 0 13.3071 0 13.721C0 14.1372 0.162001 14.5264 0.456752 14.8211L2.85076 17.2148C3.35026 17.7143 4.03877 18 4.74527 18C4.89152 18 5.03327 17.9888 5.17727 17.964C8.15629 17.4736 11.1128 15.8875 13.5001 13.5028C15.8851 11.1136 17.4691 8.15748 17.9641 5.1766C18.1058 4.33071 17.8223 3.46007 17.2148 2.85039ZM16.3688 4.90889C15.9301 7.56131 14.5036 10.207 12.3548 12.3555C10.206 14.5039 7.56228 15.9303 4.90952 16.369C4.57652 16.4252 4.23452 16.3127 3.99152 16.072L1.64026 13.721L4.13327 11.2261L6.82878 13.9258L6.84903 13.946L7.33503 13.766C8.80863 13.2243 10.1468 12.3687 11.2568 11.2584C12.3668 10.1482 13.222 8.80993 13.7633 7.33633L13.9433 6.85039L11.2253 4.13498L13.7183 1.64004L16.0696 3.991C16.3126 4.23397 16.4251 4.57593 16.3688 4.90889Z" fill="currentColor"/>
</g>
<defs>
<clipPath id="clip0_1214_336">
<rect width="18" height="18" fill="white"/>
</clipPath>
</defs>
</svg>
