<svg width="18" height="18" viewBox="0 0 18 18" fill="none" xmlns="http://www.w3.org/2000/svg">
<path d="M16.6674 1.00164C16.4451 1.01764 16.2269 1.06925 16.0213 1.15445H16.0186C15.8212 1.23189 14.8829 1.62248 13.4565 2.21455L8.34466 4.34503C4.67666 5.87316 1.07099 7.37799 1.07099 7.37799L1.11392 7.36154C1.11392 7.36154 0.865327 7.4424 0.605652 7.61852C0.445227 7.71954 0.307181 7.85172 0.199867 8.00706C0.0724531 8.19208 -0.030032 8.47509 0.00805369 8.7677C0.0703757 9.26246 0.39445 9.55917 0.627119 9.72295C0.862558 9.88878 1.08692 9.96622 1.08692 9.96622H1.09246L4.47377 11.0935C4.62542 11.5752 5.50416 14.4341 5.71536 15.0927C5.84001 15.486 5.96119 15.732 6.11284 15.9198C6.18624 16.0157 6.27211 16.0959 6.37529 16.1603C6.42892 16.1912 6.48612 16.2156 6.54563 16.2329L6.51101 16.2247C6.5214 16.2274 6.52971 16.2357 6.53732 16.2384C6.56502 16.2459 6.58372 16.2487 6.61903 16.2542C7.15431 16.4145 7.58433 16.0856 7.58433 16.0856L7.60857 16.0664L9.60495 14.2676L12.9509 16.8079L13.0271 16.8401C13.7244 17.143 14.4308 16.9744 14.804 16.677C15.18 16.3775 15.3261 15.9945 15.3261 15.9945L15.3503 15.9328L17.936 2.82443C18.0094 2.50099 18.0281 2.1981 17.9471 1.90413C17.8635 1.6066 17.6706 1.35071 17.4063 1.18666C17.1843 1.05311 16.9269 0.988652 16.6674 1.00164ZM16.5975 2.40642C16.5947 2.44959 16.603 2.4448 16.5836 2.52771V2.53525L14.0222 15.5072C14.0111 15.5257 13.9924 15.5662 13.9412 15.6066C13.8872 15.6491 13.8442 15.6758 13.6192 15.5874L9.5267 12.4825L7.0546 14.7123L7.57395 11.4299L14.2604 5.26259C14.536 5.00904 14.4439 4.95559 14.4439 4.95559C14.4633 4.64448 14.0277 4.86445 14.0277 4.86445L5.59626 10.0334L5.59349 10.0197L1.55225 8.67313V8.67039L1.54187 8.66833C1.54895 8.66601 1.55589 8.66326 1.56264 8.66011L1.5848 8.64915L1.60627 8.64161C1.60627 8.64161 5.21471 7.13678 8.88271 5.60865C10.7191 4.84321 12.5694 4.07229 13.9924 3.47749C14.8364 3.12595 15.6812 2.77646 16.5268 2.42904C16.5836 2.40711 16.5566 2.40642 16.5975 2.40642Z" fill="currentColor"/>
</svg>
