<svg viewBox="0 0 30 30" fill="none" xmlns="http://www.w3.org/2000/svg">
<path d="M26.1303 8.7811C22.3906 2.99981 14.7554 1.28105 8.83426 4.87482C3.06889 8.4686 1.19905 16.2812 4.93874 22.0625L5.25038 22.5312L4.00382 27.2187L8.67844 25.9687L9.1459 26.2812C11.1716 27.375 13.3531 28 15.5345 28C17.8719 28 20.2092 27.375 22.2348 26.125C28.0002 22.375 29.7142 14.7186 26.1303 8.7811ZM22.8581 20.8124C22.2348 21.75 21.4557 22.375 20.365 22.5312C19.7417 22.5312 18.9626 22.8437 15.8462 21.5937C13.1972 20.3437 11.0157 18.3124 9.45754 15.9687C8.52261 14.8749 8.05515 13.4686 7.89933 12.0624C7.89933 10.8124 8.36679 9.71861 9.1459 8.93736C9.45754 8.62485 9.76918 8.4686 10.0808 8.4686H10.8599C11.1716 8.4686 11.4832 8.4686 11.639 9.09361C11.9507 9.87486 12.7298 11.7499 12.7298 11.9061C12.8856 12.0624 12.8856 12.3749 12.7298 12.5311C12.8856 12.8436 12.7298 13.1561 12.574 13.3124C12.4181 13.4686 12.2623 13.7811 12.1065 13.9374C11.7948 14.0936 11.639 14.4061 11.7948 14.7186C12.4181 15.6562 13.1972 16.5937 13.9763 17.3749C14.9113 18.1562 15.8462 18.7812 16.9369 19.2499C17.2486 19.4062 17.5602 19.4062 17.716 19.0937C17.8719 18.7812 18.651 17.9999 18.9626 17.6874C19.2742 17.3749 19.4301 17.3749 19.7417 17.5312L22.2348 18.7812C22.5465 18.9374 22.8581 19.0937 23.0139 19.2499C23.1698 19.7187 23.1698 20.3437 22.8581 20.8124Z" fill="currentColor"/>
</svg>
