<svg viewBox="0 0 18 18" fill="none" xmlns="http://www.w3.org/2000/svg">
<mask id="mask0_1214_346" style="mask-type:luminance" maskUnits="userSpaceOnUse" x="0" y="0" width="18" height="18">
<path d="M0 0H18V18H0V0Z" fill="white"/>
</mask>
<g mask="url(#mask0_1214_346)">
<path fill-rule="evenodd" clip-rule="evenodd" d="M13.0613 10.7865C12.8378 10.6748 11.742 10.1363 11.538 10.0613C11.334 9.98703 11.1855 9.95028 11.0363 10.1738C10.8877 10.3965 10.461 10.8983 10.3312 11.0468C10.2007 11.196 10.071 11.214 9.84825 11.103C9.6255 10.9905 8.907 10.7558 8.05575 9.99678C7.3935 9.40578 6.94575 8.67603 6.816 8.45253C6.68625 8.22978 6.80175 8.10903 6.9135 7.99803C7.014 7.89828 7.13625 7.73778 7.248 7.60803C7.35975 7.47753 7.3965 7.38453 7.47075 7.23528C7.54575 7.08678 7.50825 6.95703 7.452 6.84528C7.3965 6.73353 6.951 5.63628 6.765 5.19003C6.58425 4.75578 6.4005 4.81503 6.264 4.80753C6.1335 4.80153 5.985 4.80003 5.8365 4.80003C5.688 4.80003 5.4465 4.85553 5.2425 5.07903C5.03775 5.30178 4.4625 5.84103 4.4625 6.93828C4.4625 8.03478 5.2605 9.09453 5.37225 9.24378C5.484 9.39228 6.9435 11.6438 9.17925 12.609C9.71175 12.8385 10.1265 12.9758 10.4497 13.0778C10.9837 13.248 11.4698 13.224 11.8538 13.1663C12.2812 13.1025 13.1723 12.627 13.3583 12.1065C13.5435 11.586 13.5435 11.1398 13.488 11.0468C13.4325 10.9538 13.284 10.8983 13.0605 10.7865M8.994 16.3388H8.991C7.66307 16.339 6.35953 15.982 5.217 15.3053L4.947 15.1448L2.1405 15.8813L2.88975 13.1453L2.7135 12.8648C1.9711 11.683 1.57822 10.3154 1.58025 8.91978C1.58175 4.83228 4.90725 1.50678 8.997 1.50678C9.97102 1.50423 10.9359 1.69512 11.8355 2.06835C12.7352 2.44158 13.5518 2.98974 14.238 3.68103C14.9282 4.36838 15.4753 5.18574 15.8476 6.08586C16.2199 6.98597 16.41 7.95096 16.407 8.92503C16.4055 13.0125 13.08 16.3388 8.994 16.3388ZM15.303 2.61603C14.4767 1.78431 13.4936 1.12482 12.4107 0.675774C11.3277 0.226724 10.1664 -0.00295982 8.994 2.87944e-05C4.0785 2.87944e-05 0.0765 4.00128 0.075 8.91903C0.0727223 10.4841 0.483281 12.0221 1.26525 13.3778L0 18L4.728 16.7595C6.03591 17.4721 7.50157 17.8455 8.991 17.8455H8.99475C13.9102 17.8455 17.9123 13.8443 17.9137 8.92578C17.9174 7.75373 17.6886 6.5926 17.2406 5.50955C16.7926 4.4265 16.1343 3.44303 15.3038 2.61603" fill="currentColor"/>
</g>
</svg>
