<svg viewBox="0 0 30 30" fill="none" xmlns="http://www.w3.org/2000/svg">
<path d="M28.7498 12.1369C28.8116 10.3477 28.4203 8.57189 27.6123 6.97437C27.064 6.31887 26.3032 5.87651 25.4623 5.72437C21.9842 5.40878 18.4917 5.27942 14.9998 5.33687C11.5206 5.27682 8.04068 5.40199 4.57479 5.71187C3.88956 5.83652 3.25544 6.15792 2.74979 6.63687C1.62479 7.67437 1.49979 9.44937 1.37479 10.9494C1.19343 13.6463 1.19343 16.3524 1.37479 19.0494C1.41095 19.8936 1.53666 20.7317 1.74979 21.5494C1.90051 22.1807 2.20544 22.7648 2.63729 23.2494C3.14637 23.7537 3.79527 24.0934 4.49979 24.2244C7.19468 24.557 9.91006 24.6949 12.6248 24.6369C16.9998 24.6994 20.8373 24.6369 25.3748 24.2869C26.0966 24.1639 26.7638 23.8238 27.2873 23.3119C27.6372 22.9618 27.8986 22.5332 28.0498 22.0619C28.4968 20.6901 28.7164 19.2545 28.6998 17.8119C28.7498 17.1119 28.7498 12.8869 28.7498 12.1369ZM12.1748 18.5619V10.8244L19.5748 14.7119C17.4998 15.8619 14.7623 17.1619 12.1748 18.5619Z" fill="currentColor"/>
</svg>
