<svg width="14" height="11" viewBox="0 0 14 11" fill="none" xmlns="http://www.w3.org/2000/svg">
<path d="M7.88889 0C7.62153 0 7.39265 0.103566 7.20226 0.310697C7.01186 0.517829 6.91667 0.766827 6.91667 1.05769C6.91667 1.34856 7.01186 1.59756 7.20226 1.80469C7.39265 2.01182 7.62153 2.11538 7.88889 2.11538C8.15625 2.11538 8.38513 2.01182 8.57552 1.80469C8.76591 1.59756 8.86111 1.34856 8.86111 1.05769C8.86111 0.766827 8.76591 0.517829 8.57552 0.310697C8.38513 0.103566 8.15625 0 7.88889 0ZM5.67101 10.6827L6.69792 8.85156C6.81134 8.64884 6.89641 8.44611 6.95312 8.24339L7.30556 6.97416L8.36892 8.18389L9.29861 10.61C9.34317 10.729 9.41305 10.8237 9.50825 10.8942C9.60344 10.9647 9.71181 11 9.83333 11C9.99537 11 10.1331 10.9383 10.2465 10.8149C10.36 10.6915 10.4167 10.5417 10.4167 10.3654C10.4167 10.2905 10.4025 10.2111 10.3741 10.1274L9.52344 7.84676C9.47078 7.70132 9.42925 7.60327 9.39887 7.55258C9.36849 7.5019 9.30064 7.41486 9.19531 7.29147L7.99826 5.89002L8.36285 4.02584L8.70312 4.74639C8.76794 4.89623 8.85706 5.00421 8.97049 5.07031C8.99479 5.08353 9.41406 5.3149 10.2283 5.76442C10.4227 5.87019 10.5503 5.92308 10.6111 5.92308C10.7245 5.92308 10.8177 5.88341 10.8906 5.80409C10.9635 5.72476 11 5.6234 11 5.5C11 5.31931 10.923 5.1849 10.7691 5.09676L9.3776 4.29026L8.83073 2.92849C8.72946 2.6861 8.59578 2.55389 8.42969 2.53185L7.03819 2.35998C6.90856 2.34675 6.73438 2.38862 6.51562 2.48558L5.04514 3.12019C4.96412 3.15545 4.88513 3.21494 4.80816 3.29868C4.73119 3.38241 4.68056 3.46835 4.65625 3.55649C4.33623 4.45553 4.12558 5.05489 4.02431 5.35457C4.0081 5.39423 4 5.44271 4 5.5C4 5.61458 4.03848 5.71374 4.11545 5.79748C4.19242 5.88121 4.28356 5.92308 4.38889 5.92308C4.46991 5.92308 4.55194 5.90214 4.63498 5.86028C4.71803 5.81841 4.7717 5.76442 4.79601 5.69832L5.4158 3.92668L6.69184 3.40445L5.79861 7.94591L4.65625 10.0613C4.60764 10.1627 4.58333 10.264 4.58333 10.3654C4.58333 10.5417 4.64005 10.6915 4.75347 10.8149C4.8669 10.9383 5.00463 11 5.16667 11C5.38542 11 5.55353 10.8942 5.67101 10.6827Z" fill="#0F3239" fill-opacity="0.8"/>
</svg>
