<svg width="14" height="11" viewBox="0 0 14 11" fill="none" xmlns="http://www.w3.org/2000/svg">
<path d="M12.05 4.21429H11.725L9.51541 1.48254C9.39358 1.33199 9.23909 1.21046 9.06336 1.12693C8.88763 1.0434 8.69516 1.00002 8.50019 1H4.15514C3.62356 1 3.14561 1.32002 2.94817 1.80819L1.975 4.25969C1.41519 4.40312 1 4.90154 1 5.5V7.75C1 7.92759 1.14544 8.07143 1.325 8.07143H2.3C2.3 9.13656 3.17303 10 4.25 10C5.32697 10 6.2 9.13656 6.2 8.07143H8.8C8.8 9.13656 9.67303 10 10.75 10C11.827 10 12.7 9.13656 12.7 8.07143H13.675C13.8546 8.07143 14 7.92759 14 7.75V6.14286C14 5.07772 13.127 4.21429 12.05 4.21429ZM4.25 9.03571C3.71233 9.03571 3.275 8.60319 3.275 8.07143C3.275 7.53967 3.71233 7.10714 4.25 7.10714C4.78767 7.10714 5.225 7.53967 5.225 8.07143C5.225 8.60319 4.78767 9.03571 4.25 9.03571ZM5.7125 4.21429H3.37514L4.15514 2.28571H5.7125V4.21429ZM6.6875 4.21429V2.28571H8.50019L10.0602 4.21429H6.6875ZM10.75 9.03571C10.2123 9.03571 9.775 8.60319 9.775 8.07143C9.775 7.53967 10.2123 7.10714 10.75 7.10714C11.2877 7.10714 11.725 7.53967 11.725 8.07143C11.725 8.60319 11.2877 9.03571 10.75 9.03571Z" fill="#0F3239" fill-opacity="0.8"/>
</svg>
