<svg width="14" height="11" viewBox="0 0 14 11" fill="none" xmlns="http://www.w3.org/2000/svg">
<path d="M11.9672 5.78947C11.855 5.78974 11.7429 5.79942 11.6321 5.81842L11.3366 5.02158C11.5435 4.97237 11.755 4.94747 11.9672 4.94737C12.075 4.94737 12.1783 4.90301 12.2545 4.82404C12.3307 4.74508 12.3735 4.63798 12.3735 4.52631C12.3735 4.41464 12.3307 4.30755 12.2545 4.22859C12.1783 4.14962 12.075 4.10526 11.9672 4.10526H10.9964L10.3155 2.27C10.286 2.19052 10.234 2.12217 10.1663 2.07397C10.0986 2.02576 10.0183 1.99997 9.9362 2H8.31136C8.20363 2 8.1003 2.04436 8.02412 2.12332C7.94795 2.20229 7.90515 2.30938 7.90515 2.42105C7.90515 2.53272 7.94795 2.63982 8.02412 2.71878C8.1003 2.79774 8.20363 2.8421 8.31136 2.8421H9.65744L10.1261 4.10526H8.71757C7.77821 4.10526 7.01657 4.3321 6.5154 4.76105C6.39747 4.85966 6.25528 4.92213 6.1049 4.94138C5.95451 4.96063 5.80193 4.93591 5.6644 4.87C5.12718 4.61684 1.94301 3.28474 1.91711 3.27737C1.81592 3.24654 1.70712 3.25771 1.61373 3.30853C1.52035 3.35936 1.44969 3.44584 1.41672 3.54968C1.38374 3.65353 1.39102 3.7666 1.43703 3.86499C1.48303 3.96337 1.56415 4.03934 1.66323 4.07684C1.66323 4.07684 4.48131 5.23158 5.04137 5.81052C5.47647 6.25969 5.75863 6.84351 5.84516 7.47368H5.02106C4.9204 6.96251 4.6402 6.50828 4.23481 6.19907C3.82941 5.88986 3.32769 5.74769 2.82691 5.80013C2.32613 5.85257 1.86198 6.09588 1.52443 6.48288C1.18689 6.86988 1 7.37302 1 7.89473C1 8.41645 1.18689 8.91958 1.52443 9.30659C1.86198 9.69359 2.32613 9.9369 2.82691 9.98933C3.32769 10.0418 3.82941 9.8996 4.23481 9.59039C4.6402 9.28118 4.9204 8.82696 5.02106 8.31579H7.66752C8.01983 8.31659 8.3628 8.19834 8.64446 7.97895C8.92611 7.75956 9.13111 7.45099 9.22838 7.1C9.3297 6.72665 9.50112 6.3777 9.73281 6.07315C9.96449 5.76861 10.2519 5.51445 10.5785 5.32526L10.874 6.12158C10.4623 6.39472 10.1595 6.81262 10.021 7.29856C9.88261 7.78451 9.91791 8.3059 10.1205 8.76704C10.323 9.22818 10.6792 9.59814 11.1237 9.80901C11.5681 10.0199 12.0711 10.0575 12.5402 9.91501C13.0093 9.77251 13.413 9.45942 13.6774 9.03322C13.9417 8.60702 14.0489 8.09629 13.9793 7.59477C13.9096 7.09326 13.6678 6.6346 13.2982 6.30299C12.9286 5.97137 12.4561 5.78905 11.9672 5.78947ZM3.03063 8.31579H4.17919C4.08337 8.59672 3.89482 8.83349 3.64686 8.98426C3.39891 9.13503 3.10751 9.19009 2.82418 9.1397C2.54086 9.08931 2.28383 8.93672 2.09854 8.70891C1.91325 8.48109 1.81163 8.19271 1.81163 7.89473C1.81163 7.59676 1.91325 7.30838 2.09854 7.08056C2.28383 6.85274 2.54086 6.70016 2.82418 6.64977C3.10751 6.59938 3.39891 6.65444 3.64686 6.8052C3.89482 6.95597 4.08337 7.19275 4.17919 7.47368H3.03063C2.9229 7.47368 2.81958 7.51804 2.7434 7.597C2.66722 7.67597 2.62442 7.78306 2.62442 7.89473C2.62442 8.0064 2.66722 8.1135 2.7434 8.19246C2.81958 8.27143 2.9229 8.31579 3.03063 8.31579ZM11.9672 9.15789C11.7183 9.15757 11.4755 9.07824 11.2713 8.93058C11.0672 8.78293 10.9116 8.57401 10.8255 8.33195C10.7393 8.08988 10.7267 7.82627 10.7894 7.57658C10.8521 7.32688 10.9871 7.10308 11.1762 6.93526L11.5879 8.04579C11.6266 8.15006 11.7036 8.23414 11.8021 8.27955C11.9005 8.32495 12.0124 8.32795 12.113 8.28789C12.2136 8.24783 12.2947 8.16799 12.3385 8.06593C12.3823 7.96387 12.3852 7.84795 12.3465 7.74368L11.9342 6.63158H11.9672C12.2904 6.63158 12.6004 6.76466 12.8289 7.00155C13.0575 7.23843 13.1859 7.55972 13.1859 7.89473C13.1859 8.22974 13.0575 8.55103 12.8289 8.78792C12.6004 9.02481 12.2904 9.15789 11.9672 9.15789Z" fill="#0F3239" fill-opacity="0.8"/>
</svg>
