<svg width="520" height="520" viewBox="0 0 520 520" fill="none" xmlns="http://www.w3.org/2000/svg">
<circle cx="260" cy="260" r="260" fill="#F8F8F8"/>
<path d="M358.221 259.339C345.956 249.953 327.001 243.634 301.359 240.382C290.981 239.062 281.08 238.104 271.654 237.509L245.187 235.939C236.967 235.456 229.422 234.78 222.551 233.91C216.128 233.166 209.811 231.676 203.724 229.467C191.855 225.265 185.92 218.568 185.92 209.375C185.92 200.746 191.387 193.904 202.32 188.848C213.253 183.793 229.382 181.257 250.709 181.241C266.583 181.196 282.402 183.126 297.813 186.989C313.684 191.074 329.023 197.048 343.512 204.787L364.172 181.531C334.372 161.053 297.4 150.813 253.256 150.813C219.933 150.813 194.37 156.448 176.566 167.718C158.763 178.987 149.9 194.394 149.98 213.939C149.653 222.573 151.705 231.128 155.906 238.644C160.273 245.493 166.451 250.958 173.734 254.413C183.101 258.897 193.071 261.949 203.32 263.469C215.109 265.465 228.922 267.075 244.758 268.299C259.849 269.265 273.289 270.174 285.079 271.027C295.136 271.628 305.123 273.115 314.926 275.471C321.763 276.93 328.135 280.092 333.468 284.672C337.704 288.681 339.823 294.42 339.823 301.89C339.823 313.16 333.476 322.103 320.781 328.72C308.087 335.337 289.506 338.645 265.037 338.645C228.397 339.051 192.426 328.675 161.476 308.773L142.815 333.743C158.311 346.113 176.128 355.152 195.179 360.307C217.85 366.283 241.212 369.134 264.633 368.783C301.24 368.783 329.009 362.754 347.939 350.695C366.869 338.637 376.35 321.604 376.382 299.596C376.541 282.209 370.487 268.79 358.221 259.339Z" fill="url(#paint0_linear_1134_1014)"/>
<defs>
<linearGradient id="paint0_linear_1134_1014" x1="999.852" y1="381.925" x2="238.217" y2="232.407" gradientUnits="userSpaceOnUse">
<stop offset="0.229391" stop-color="white" stop-opacity="0"/>
<stop offset="1" stop-color="#0F3239"/>
</linearGradient>
</defs>
</svg>
