<svg width="419" height="310" viewBox="0 0 419 310" fill="none" xmlns="http://www.w3.org/2000/svg">
<g clip-path="url(#clip0_1097_1045)">
<g opacity="0.24">
<path d="M126.833 109.844L126.908 109.499C126.853 109.57 126.803 109.645 126.757 109.723L126.259 109L125.821 111.083C-9.73745 307.584 -61.2931 991.359 -63 1013.54V1014.1L-62.8792 1013.54H316.122C316.122 1013.54 265.019 308.6 126.833 109.844Z" fill="#2F4248"/>
<path d="M126.833 109.844L126.908 109.499C126.853 109.57 126.803 109.645 126.757 109.723L126.259 109L125.821 111.083C-9.73745 307.584 -61.2931 991.359 -63 1013.54V1014.1L-62.8792 1013.54H316.122C316.122 1013.54 265.019 308.6 126.833 109.844Z" fill="#27474B"/>
</g>
<path d="M294.594 36.7232V36.4305L294.443 36.6199L293.96 36L293.521 37.7219C158.024 208.222 106.453 801.271 104.776 820.504V821.004L104.897 820.504H483.898C483.898 820.504 432.765 209.049 294.594 36.7232Z" fill="#27474B"/>
</g>
<defs>
<clipPath id="clip0_1097_1045">
<rect width="419" height="310" fill="white"/>
</clipPath>
</defs>
</svg>
