<svg width="806" height="635" viewBox="0 0 806 635" fill="none" xmlns="http://www.w3.org/2000/svg">
<g clip-path="url(#clip0_957_68)">
<g clip-path="url(#clip1_957_68)">
<path d="M194.21 533L171.39 357.27L182.8 342.69L190.61 310.59L197.53 303.08C197.53 303.08 204.72 272.16 233.41 277.18L237.27 279.09L244.81 276L265.81 278.48L312 276L336.62 257.62L362.22 250.75L401.14 224.88L417.43 211.25L429.5 205.39L443 207.22C443 207.22 509.4 161.13 512.82 150.53C516.24 139.93 565.48 76.66 565.48 76.66L636.28 55.8L775.11 30.15L827.44 8.6H914L918.22 1.48L1072.93 1L1073.93 665.24L937.23 645.42L892.78 650.2C892.78 650.2 878.48 651.3 871.6 649.2C864.72 647.1 818.89 645.74 818.89 645.74L670.12 629.34L487.12 601.64L339.4 565L194.21 533Z" fill="#EDF1F4" stroke="#F9FAFB" stroke-miterlimit="10"/>
<path d="M920.07 3.36953V16.7995C920.071 17.2266 919.925 17.641 919.658 17.9739C919.39 18.3068 919.017 18.5382 918.6 18.6295C911.45 20.2595 880.12 27.8595 872.3 37.8395C872.006 38.207 871.585 38.4503 871.119 38.5207C870.654 38.5911 870.179 38.4836 869.79 38.2195L844.29 20.9995C843.996 20.8034 843.652 20.6938 843.299 20.6832C842.945 20.6725 842.596 20.7614 842.29 20.9395L811.29 39.0495C811.089 39.1724 810.91 39.3278 810.76 39.5095C809.25 41.4295 800.61 52.6395 801.76 57.4195C802.71 61.4195 806.39 66.5795 808.04 68.7295C808.275 69.0346 808.41 69.4043 808.428 69.7888C808.446 70.1733 808.345 70.554 808.14 70.8795L799.98 83.7695C799.776 84.0887 799.482 84.3395 799.134 84.4892C798.786 84.639 798.402 84.6809 798.03 84.6095L785.2 82.1895C784.862 82.1231 784.513 82.1507 784.189 82.2694C783.866 82.388 783.582 82.5932 783.367 82.8625C783.152 83.1318 783.016 83.4549 782.972 83.7964C782.929 84.138 782.98 84.485 783.12 84.7995L805 133.9C805.129 134.188 805.183 134.504 805.157 134.819C805.131 135.134 805.025 135.437 804.85 135.7L799.5 143.85C799.329 144.112 799.226 144.413 799.2 144.726C799.174 145.038 799.225 145.352 799.35 145.64L806.42 161.76C806.571 162.095 806.619 162.467 806.56 162.83L802.56 186.29C802.486 186.729 802.259 187.129 801.918 187.416C801.578 187.704 801.146 187.861 800.7 187.86H787.92C787.464 187.859 787.024 187.694 786.68 187.394C786.337 187.095 786.113 186.681 786.05 186.23L781.87 155.23C781.807 154.778 781.584 154.364 781.24 154.065C780.896 153.765 780.456 153.6 780 153.6H768.37C766.791 153.592 765.257 154.119 764.015 155.094C762.773 156.068 761.898 157.434 761.53 158.97L752.7 195.1C752.683 195.178 752.659 195.255 752.63 195.33L747.56 208.46C747.472 208.672 747.428 208.9 747.43 209.13V226.67C747.431 226.962 747.499 227.25 747.629 227.512C747.759 227.774 747.948 228.002 748.18 228.18L756.6 234.51C756.881 234.722 757.097 235.009 757.224 235.337C757.351 235.666 757.384 236.023 757.32 236.37L754.68 250.28C754.617 250.609 754.643 250.949 754.755 251.265C754.867 251.581 755.062 251.861 755.319 252.076C755.576 252.291 755.886 252.434 756.217 252.489C756.548 252.544 756.887 252.51 757.2 252.39L784.65 241.85C784.895 241.756 785.157 241.714 785.419 241.728C785.68 241.742 785.936 241.81 786.17 241.93L802.62 250.15C802.852 250.267 803.057 250.43 803.223 250.63C803.39 250.83 803.513 251.061 803.586 251.311C803.659 251.56 803.68 251.822 803.648 252.079C803.616 252.337 803.532 252.586 803.4 252.81L796.7 264C796.471 264.379 796.384 264.828 796.456 265.266C796.527 265.704 796.752 266.102 797.09 266.39L807.09 275.01C807.339 275.223 807.527 275.497 807.637 275.805C807.747 276.114 807.775 276.445 807.717 276.768C807.659 277.09 807.519 277.391 807.309 277.643C807.099 277.894 806.827 278.086 806.52 278.2L781.77 287.54C781.389 287.68 781.063 287.941 780.843 288.283C780.622 288.624 780.518 289.028 780.546 289.433C780.574 289.839 780.733 290.224 780.999 290.532C781.265 290.839 781.623 291.053 782.02 291.14L794.65 294C794.935 294.064 795.201 294.194 795.427 294.38C795.653 294.566 795.832 294.802 795.95 295.07L800.95 306.4C801.064 306.65 801.121 306.922 801.118 307.198C801.115 307.473 801.052 307.744 800.933 307.992C800.813 308.24 800.641 308.458 800.428 308.633C800.215 308.807 799.967 308.932 799.7 309L778.55 314C778.081 314.109 777.673 314.396 777.41 314.8L759.13 342.69C758.919 343.012 758.616 343.263 758.26 343.41L741.73 350.09C741.353 350.244 741.035 350.517 740.824 350.866C740.614 351.215 740.521 351.623 740.56 352.03L742.21 368.26C742.246 368.584 742.196 368.912 742.064 369.211C741.932 369.509 741.724 369.767 741.46 369.96L731.82 377.13C731.44 377.41 730.97 377.539 730.5 377.49L715.39 375.9C715.117 375.871 714.841 375.903 714.582 375.992C714.323 376.082 714.086 376.227 713.889 376.417C713.692 376.608 713.539 376.839 713.441 377.095C713.342 377.352 713.301 377.626 713.32 377.9L716 416C716.015 416.268 715.974 416.536 715.879 416.788C715.784 417.039 715.638 417.268 715.45 417.46L710.87 422C710.542 422.328 710.348 422.766 710.324 423.23C710.3 423.693 710.448 424.149 710.74 424.51L715.17 429.99C715.479 430.375 715.625 430.866 715.576 431.358C715.528 431.849 715.288 432.302 714.91 432.62L696.91 447.62C696.717 447.781 696.493 447.902 696.253 447.975C696.012 448.048 695.759 448.072 695.508 448.045C695.258 448.018 695.016 447.941 694.796 447.818C694.577 447.695 694.384 447.529 694.23 447.33L678.89 427.82C678.633 427.489 678.493 427.083 678.493 426.665C678.493 426.246 678.633 425.84 678.89 425.51L682.18 421.18C682.44 420.851 682.582 420.444 682.582 420.025C682.582 419.605 682.44 419.198 682.18 418.87L657.32 387.72C657.124 387.476 656.87 387.286 656.582 387.164C656.294 387.043 655.98 386.995 655.669 387.025C655.358 387.055 655.059 387.161 654.799 387.335C654.539 387.508 654.327 387.744 654.18 388.02L643 409.16C642.86 409.432 642.785 409.733 642.78 410.04V428.04C642.78 428.531 642.589 429.002 642.248 429.355C641.906 429.708 641.441 429.914 640.95 429.93L623.32 430.46C622.903 430.473 622.502 430.625 622.179 430.891C621.857 431.157 621.633 431.522 621.54 431.93L617.81 448.6C617.738 448.921 617.584 449.217 617.362 449.461C617.14 449.704 616.859 449.885 616.546 449.986C616.233 450.087 615.899 450.104 615.577 450.036C615.255 449.969 614.956 449.818 614.71 449.6L595.64 432.43C595.418 432.229 595.247 431.978 595.141 431.698C595.035 431.418 594.997 431.117 595.03 430.82L597.36 409.82C597.39 409.544 597.359 409.264 597.27 409.002C597.18 408.739 597.033 408.499 596.84 408.3L576.3 387.15C576.057 386.889 575.887 386.568 575.81 386.22L570.38 360.48C570.322 360.207 570.326 359.925 570.39 359.655C570.454 359.384 570.578 359.131 570.752 358.913C570.926 358.696 571.147 358.52 571.397 358.399C571.647 358.277 571.922 358.212 572.2 358.21L596.58 357.93C597.008 357.925 597.421 357.775 597.752 357.504C598.083 357.233 598.311 356.858 598.4 356.44C599.4 351.76 602.86 337.44 609.2 334.78C616.59 331.7 619.2 311.58 619.34 310.42C619.345 310.386 619.345 310.353 619.34 310.32L619.99 300.27C620.011 299.949 619.949 299.629 619.81 299.34L609.35 277.43C609.183 277.081 608.914 276.793 608.577 276.603C608.241 276.413 607.854 276.332 607.47 276.37L591 278C590.571 278.047 590.138 277.946 589.774 277.713C589.41 277.48 589.137 277.129 589 276.72L578.68 245.77C578.586 245.443 578.586 245.096 578.68 244.77C579 243.39 578.75 238.43 564.47 228.27C564.262 228.12 564.086 227.931 563.952 227.713C563.819 227.495 563.729 227.252 563.69 227L562 214.88C561.932 214.401 562.049 213.915 562.328 213.521C562.607 213.127 563.026 212.854 563.5 212.76L589.85 207.64C590.098 207.591 590.333 207.494 590.543 207.353C590.753 207.212 590.932 207.031 591.07 206.82L603.7 187.36C603.901 187.053 604.185 186.81 604.52 186.66L603.32 179.56L576.51 177.31C576.124 177.28 575.756 177.129 575.46 176.88L558.2 162.65C558.082 162.558 557.978 162.45 557.89 162.33L540.78 139.66C540.626 139.455 540.431 139.284 540.209 139.157C539.986 139.03 539.74 138.95 539.485 138.922C539.23 138.894 538.972 138.919 538.727 138.994C538.482 139.069 538.255 139.193 538.06 139.36L527.79 148.11C527.582 148.285 527.414 148.504 527.299 148.751C527.183 148.998 527.122 149.267 527.12 149.54V164.66C527.124 165.059 526.997 165.448 526.76 165.77L520.65 174.18C520.393 174.53 520.022 174.781 519.602 174.89C519.181 175 518.735 174.96 518.34 174.78L501.12 166.9C500.86 166.781 500.631 166.605 500.45 166.384C500.269 166.164 500.14 165.905 500.073 165.628C500.007 165.35 500.004 165.061 500.066 164.782C500.128 164.504 500.252 164.243 500.43 164.02C502.27 161.68 505.2 157.68 505.72 155.12C506.48 151.38 505.78 151.55 509.16 145.93C509.244 145.789 509.308 145.637 509.35 145.48C509.65 144.48 510.93 139.96 512.19 135.39C513.63 130.16 513.97 124.84 515.35 120.91C516.73 116.98 519.35 93.9095 519.51 92.5395C519.505 92.493 519.505 92.4461 519.51 92.3995L519.73 86.4795C519.731 86.3131 519.758 86.1478 519.81 85.9895L528 59.7195L528.06 59.5595L528.94 57.4495C529.097 57.0737 529.37 56.7582 529.72 56.5495L537 52.3095C537.367 52.0938 537.796 52.0089 538.218 52.0688C538.639 52.1288 539.028 52.33 539.32 52.6395L545.52 59.2195C545.79 59.4995 546.139 59.6912 546.52 59.7695L557.69 62.1995C557.99 62.268 558.303 62.2609 558.599 62.1788C558.896 62.0968 559.168 61.9424 559.39 61.7295L572.8 48.8895C572.883 48.8155 572.957 48.7316 573.02 48.6395C573.93 47.3895 581.45 37.2295 596.31 21.4795C596.582 21.19 596.757 20.823 596.81 20.4295L597.52 15.0195C597.562 14.7141 597.678 14.4236 597.858 14.1733C598.038 13.923 598.276 13.7205 598.552 13.5834C598.828 13.4463 599.134 13.3789 599.442 13.3869C599.75 13.395 600.051 13.4783 600.32 13.6295L614 21.4295C614.417 21.6618 614.906 21.7296 615.37 21.6195C616.37 21.3795 618.37 20.6195 621.32 18.0995C621.51 17.9317 621.732 17.8037 621.972 17.7229C622.213 17.6422 622.467 17.6105 622.72 17.6295C625.6 17.8795 635.48 18.7395 639.06 19.3395C639.343 19.3884 639.634 19.3713 639.91 19.2895L668.21 10.5895C668.621 10.4639 668.974 10.1986 669.21 9.83953L675.21 0.839527C675.386 0.574936 675.625 0.359131 675.907 0.212244C676.188 0.0653572 676.503 -0.00782412 676.82 -0.000472592L918.19 1.47953C918.69 1.48217 919.168 1.68246 919.52 2.03662C919.872 2.39078 920.07 2.87 920.07 3.36953Z" fill="#F9FAFB"/>
<path d="M234.47 473.32L212.47 455.32L200.21 427.52H193.35L189.35 421.39L209.54 411.29L211.89 398.29L200.89 387.11L184.3 392.88L187.18 368.36L182.49 351.77L187.9 328.92L192.23 312.45L195.19 306L195 304.55L189 310.91L183.22 327.3L182.53 335.5L180.25 344L161.64 358.41C161.64 358.41 164.24 368.8 163.72 371.66C163.2 374.52 163.72 390.66 163.72 390.66L161.64 396.9L152 396.08C152 396.08 151.67 400.24 152 401C152.33 401.76 155.42 408 155.42 408L154.42 416.31L161.42 427.31L151.84 451.41C151.84 451.41 149.84 454.27 151.98 456.35C154.12 458.43 164.5 459.72 164.5 459.72C164.5 459.72 166.56 468.11 162.81 471.21C159.06 474.31 182.35 490.09 182.35 490.09C182.35 490.09 188.53 518.9 187.07 526.09C185.61 533.28 228.89 557 261.4 566.71C293.91 576.42 342.09 589.25 342.09 589.25C342.09 589.25 348.5 592.34 351.59 594.25C354.68 596.16 386.23 600.89 389.08 603.98C391.338 606.259 393.802 608.324 396.44 610.15C396.44 610.15 449.6 631.98 452.44 632.93C455.28 633.88 479.49 638.15 480.44 637.93C481.39 637.71 528.38 636.51 528.38 636.51C528.38 636.51 552.58 632.71 551.38 636.04C550.18 639.37 554.94 642.21 558.5 642.21V649.8C558.5 649.8 558.5 649.08 569.89 649.8C581.28 650.52 584.13 657.39 584.13 657.39C584.13 657.39 589.35 655.26 589.59 650.99C589.59 650.99 625.18 649.8 627.79 641.73L650.1 651.73L657.93 646.73L661.26 650.28L690 648.58L715.87 653.58C715.87 653.58 733.43 659.04 735.33 658.58C737.23 658.12 742.92 653.58 748.62 652.41C754.32 651.24 763.33 651.22 764.28 652.41C765.23 653.6 767.37 645.05 781.61 652.41C795.85 659.77 836.19 662.14 836.19 662.14L840.7 654.55L851.14 658.34L863.48 650.04L873.21 649.04L870.13 645.79L846.25 640.04L839.92 619.62L818.64 610.7L816.91 591.7L836.47 593.14L839.92 606.08L855.17 624.21L873.17 625.36L879.87 611.26L873.54 595.73L847.08 568.11L853.69 556.6L877.15 563.87L908.07 548.87L902.02 541.12L877.28 548.31L862.9 517.81L830.43 523L828.43 545.44C828.43 545.44 826.13 557.81 831.88 566.44L823.25 574.5L807.43 566.73L800.81 584.28L770.89 586.28L759.67 596.64L747.29 575L725.14 580.18L711.9 567.56L718.81 521.25L704.71 514.92L693.49 491.33L676.23 490.46L663.86 477.23L647.75 481.23L648.9 503.09L637.68 529.3L619.27 532.75L600.57 554.91L584.46 553.18L601.72 537.36L599.13 527L561.44 523C561.44 523 496.71 529.91 489.52 535.66L463.05 531.66L435.91 543.44L423.58 555.77L423.11 541.54L402.24 537.28L393.91 553.87L349.14 529.69L334.44 536.8L296 533.42L278 504.5L262.83 500.71L254.77 483.33H234.4L234.47 473.32Z" fill="#F9FAFB"/>
<path d="M265.46 276.82C265.46 276.82 287.29 276.82 313.7 254.25L322.7 241.98L352.38 240.53L362.89 250.9L352.68 255.21L356.46 268H371.14L374.5 280.39C374.5 280.39 378.5 287.89 387.68 283.16C396.86 278.43 453.79 290.16 453.79 290.16L460.5 310.28L482.5 324.92L481.89 339.56L458.71 354.81L519.71 382.25L536.33 374.73L543.5 377.37L546.5 420L552.39 414.1L562.87 414.18L581.87 432.8L577 453.22L586.15 470.65L581.27 479.19L548.95 481.63L527.73 465.16L511.73 481.63L508.68 495.63L495.27 490.15L464.77 492.59L453.18 489L439.77 497.53L437.94 519.53L489.52 535.72L440.87 548.83L378.77 510.99L352.55 524.41L320.7 486.86C320.7 486.86 311.01 503.52 280.51 496.16C280.51 496.16 277.51 463.68 233.51 472.56L216.34 477.76L190.61 433.59L233 410.27L238.49 397.46L255.56 393.8L270.79 413.93C270.79 413.93 264.25 375.23 241.36 364.72C218.47 354.21 223.25 320 223.25 320C223.25 320 235.46 312.83 245.25 318C255.04 323.17 277.65 341.17 277.65 341.17C277.65 341.17 323.13 356.83 329.97 335.8C336.81 314.77 296.37 306 296.37 306L280.47 304.6L274.81 307.52L266.81 294.23L268.07 286.56L265.46 276.82Z" fill="#F9FAFB"/>
<path d="M178.025 247.988C177.226 247.384 175.992 246.977 174.323 246.768C173.647 246.683 173.002 246.621 172.389 246.583L170.665 246.482C170.13 246.45 169.639 246.407 169.192 246.351C168.773 246.303 168.362 246.207 167.966 246.065C167.193 245.794 166.807 245.363 166.807 244.771C166.807 244.215 167.162 243.775 167.874 243.449C168.586 243.124 169.636 242.96 171.025 242.959C172.058 242.956 173.088 243.081 174.092 243.329C175.125 243.593 176.124 243.977 177.067 244.476L178.412 242.978C176.472 241.659 174.065 241 171.191 241C169.021 241 167.357 241.363 166.197 242.089C165.038 242.814 164.461 243.806 164.466 245.065C164.445 245.621 164.579 246.172 164.852 246.656C165.137 247.097 165.539 247.449 166.013 247.671C166.623 247.96 167.272 248.156 167.939 248.254C168.707 248.383 169.606 248.487 170.637 248.565C171.62 248.628 172.495 248.686 173.263 248.741C173.917 248.78 174.568 248.875 175.206 249.027C175.651 249.121 176.066 249.325 176.413 249.62C176.689 249.878 176.827 250.247 176.827 250.728C176.827 251.454 176.414 252.03 175.587 252.456C174.761 252.882 173.551 253.095 171.958 253.095C169.572 253.121 167.23 252.453 165.215 251.172L164 252.78C165.009 253.576 166.169 254.158 167.409 254.49C168.885 254.875 170.407 255.058 171.931 255.036C174.315 255.036 176.123 254.648 177.355 253.871C178.588 253.095 179.205 251.998 179.207 250.581C179.218 249.461 178.824 248.597 178.025 247.988Z" fill="#0F3239"/>
<path d="M194.7 249.689C194.715 250.184 194.606 250.674 194.386 251.106C194.166 251.538 193.842 251.895 193.45 252.139C192.617 252.705 191.385 252.987 189.753 252.986C188.121 252.985 186.88 252.703 186.029 252.139C185.636 251.897 185.31 251.54 185.088 251.108C184.866 250.676 184.756 250.185 184.771 249.689V241H182.717V250.221C182.714 250.898 182.883 251.562 183.205 252.139C183.557 252.759 184.034 253.281 184.599 253.664C185.285 254.128 186.033 254.468 186.817 254.67C188.743 255.157 190.744 255.16 192.672 254.68C193.451 254.481 194.194 254.141 194.871 253.673C195.434 253.287 195.911 252.766 196.266 252.149C196.591 251.57 196.76 250.901 196.755 250.221V241H194.7V249.689Z" fill="#0F3239"/>
<path d="M213.259 248.439C213.675 248.258 214.051 248.005 214.37 247.692C214.691 247.367 214.94 246.983 215.101 246.563C215.282 246.079 215.371 245.566 215.361 245.052C215.361 243.796 214.963 242.807 214.166 242.084C213.369 241.361 212.261 241 210.841 241H200.264V253.868H202.488V248.955H209.267L212.898 253.86H215.472L211.879 248.848C212.356 248.77 212.82 248.633 213.259 248.439ZM202.488 247.018V242.93H210.303C212.156 242.93 213.082 243.635 213.083 245.044C213.083 245.684 212.864 246.173 212.426 246.511C211.987 246.849 211.348 247.018 210.508 247.018H202.488Z" fill="#0F3239"/>
<path d="M218.981 253.868H221.07V248.169H226.946C227.238 247.471 227.531 246.825 227.805 246.227H221.072V242.942H229.485C229.851 242.274 230.249 241.626 230.679 241H218.981V253.868Z" fill="#0F3239"/>
<path d="M247.115 247.99C246.379 247.385 245.241 246.978 243.701 246.769C243.078 246.684 242.483 246.622 241.917 246.584L240.328 246.483C239.835 246.452 239.382 246.408 238.969 246.352C238.584 246.304 238.205 246.208 237.84 246.066C237.125 245.795 236.769 245.364 236.77 244.772C236.77 244.216 237.098 243.775 237.754 243.45C238.411 243.124 239.379 242.961 240.66 242.96C241.613 242.957 242.562 243.081 243.488 243.33C244.441 243.593 245.362 243.978 246.231 244.476L247.472 242.978C245.683 241.659 243.463 241 240.812 241C238.812 241 237.277 241.363 236.208 242.089C235.139 242.815 234.607 243.807 234.612 245.066C234.592 245.622 234.716 246.173 234.969 246.657C235.23 247.098 235.601 247.45 236.038 247.673C236.6 247.961 237.199 248.158 237.814 248.256C238.522 248.384 239.351 248.488 240.302 248.567C241.208 248.629 242.015 248.688 242.723 248.743C243.327 248.781 243.927 248.877 244.515 249.029C244.926 249.123 245.308 249.327 245.628 249.622C245.883 249.88 246.011 250.244 246.011 250.731C246.011 251.456 245.63 252.032 244.868 252.459C244.106 252.885 242.99 253.098 241.521 253.098C240.436 253.104 239.356 252.947 238.31 252.631C237.253 252.298 236.243 251.806 235.309 251.171L234.189 252.779C235.121 253.577 236.193 254.159 237.34 254.49C238.701 254.875 240.104 255.058 241.51 255.036C243.708 255.036 245.375 254.648 246.512 253.871C247.648 253.094 248.22 251.997 248.226 250.58C248.223 249.462 247.852 248.599 247.115 247.99Z" fill="#0F3239"/>
<path d="M254.075 241H251.736V253.868H254.075V241Z" fill="#0F3239"/>
<path d="M270.864 242.796C270.207 242.204 269.439 241.754 268.605 241.472C267.639 241.145 266.627 240.986 265.609 241.001H257.585V253.868H266.011C266.894 253.875 267.772 253.727 268.605 253.431C269.392 253.152 270.118 252.721 270.742 252.16C271.396 251.597 271.919 250.894 272.273 250.101C272.628 249.308 272.805 248.446 272.792 247.576C272.804 246.648 272.634 245.727 272.292 244.867C271.975 244.077 271.487 243.37 270.864 242.796ZM270.189 249.292C269.985 249.812 269.682 250.286 269.296 250.686C268.907 251.083 268.442 251.394 267.93 251.601C267.376 251.825 266.783 251.937 266.187 251.93H259.688V242.938H265.784C266.444 242.929 267.099 243.04 267.719 243.267C268.274 243.471 268.781 243.788 269.209 244.2C269.628 244.609 269.956 245.102 270.173 245.649C270.406 246.245 270.522 246.882 270.513 247.523C270.52 248.129 270.41 248.729 270.189 249.292Z" fill="#0F3239"/>
<path d="M276.302 241.019V253.868H282.382C282.594 253.195 282.803 252.551 283.019 251.927H278.299V248.165H284.423C284.704 247.468 284.984 246.822 285.247 246.225H278.299V242.941H286.855C287.557 241.646 287.999 241.009 288 241H276.302V241.019Z" fill="#0F3239"/>
<line x1="227.5" y1="274.5" x2="227.5" y2="333.5" stroke="#0F3239" stroke-linecap="round" stroke-dasharray="4 4"/>
<circle cx="227" cy="350" r="7.5" stroke="#0F3239"/>
<circle cx="227" cy="350" r="13.5" stroke="#0F3239"/>
<circle cx="227" cy="350" r="5" fill="#0F3239"/>
</g>
</g>
<defs>
<clipPath id="clip0_957_68">
<rect width="806" height="635" fill="white"/>
</clipPath>
<clipPath id="clip1_957_68">
<rect width="923.41" height="684.88" fill="white" transform="translate(151)"/>
</clipPath>
</defs>
</svg>
